<svg width="159" height="47" viewBox="0 0 159 47" fill="none" xmlns="http://www.w3.org/2000/svg">
<rect width="159" height="47" rx="15" fill="#534089"/>
<path d="M57.7528 30.336L58.1688 28.096C59.1821 28.1067 59.9981 28.08 60.6168 28.016C61.2461 27.9413 61.7208 27.808 62.0408 27.616C62.3714 27.4133 62.5848 27.1307 62.6808 26.768C62.7874 26.3947 62.8248 25.92 62.7928 25.344L62.4408 18.288H64.6808L65.0328 25.456C65.0861 26.4267 65.0168 27.232 64.8248 27.872C64.6328 28.5013 64.2701 28.9973 63.7368 29.36C63.2034 29.712 62.4514 29.9627 61.4808 30.112C60.5101 30.2613 59.2674 30.336 57.7528 30.336ZM56.9848 26.544L56.5688 24.96C56.9421 24.864 57.2461 24.7787 57.4808 24.704C57.7261 24.6293 57.9074 24.5547 58.0248 24.48C58.1421 24.4053 58.2008 24.3307 58.2008 24.256C58.2008 24.16 58.1528 24.0587 58.0568 23.952C57.9608 23.8453 57.8541 23.7227 57.7368 23.584C57.6194 23.4453 57.5128 23.2907 57.4168 23.12C57.3208 22.9493 57.2728 22.752 57.2728 22.528C57.2728 22.2613 57.3474 22.0107 57.4968 21.776C57.6461 21.5307 57.8861 21.296 58.2168 21.072C58.5581 20.8373 59.0061 20.608 59.5608 20.384L60.2488 21.808C59.8008 21.9893 59.4968 22.1493 59.3368 22.288C59.1874 22.416 59.1128 22.5387 59.1128 22.656C59.1128 22.752 59.1608 22.864 59.2568 22.992C59.3528 23.12 59.4594 23.264 59.5768 23.424C59.7048 23.5733 59.8168 23.744 59.9128 23.936C60.0088 24.1173 60.0568 24.3147 60.0568 24.528C60.0568 24.6987 60.0194 24.8747 59.9448 25.056C59.8808 25.2373 59.7421 25.4133 59.5288 25.584C59.3261 25.7547 59.0221 25.92 58.6168 26.08C58.2114 26.24 57.6674 26.3947 56.9848 26.544ZM57.7528 30.336C56.6008 30.336 55.6248 30.2453 54.8248 30.064C54.0354 29.8933 53.3901 29.648 52.8888 29.328C52.3981 28.9973 52.0408 28.6133 51.8168 28.176C51.5928 27.7387 51.4808 27.2587 51.4808 26.736C51.4808 26.3947 51.5074 26.0533 51.5608 25.712C51.6248 25.36 51.6994 25.0187 51.7848 24.688C51.8808 24.3573 51.9661 24.0587 52.0408 23.792L54.0408 24.256C53.9981 24.448 53.9501 24.656 53.8968 24.88C53.8434 25.104 53.8008 25.3227 53.7688 25.536C53.7368 25.7387 53.7208 25.9253 53.7208 26.096C53.7208 26.4907 53.8594 26.8427 54.1368 27.152C54.4248 27.4507 54.8941 27.6853 55.5448 27.856C56.1954 28.016 57.0701 28.096 58.1688 28.096L58.4888 29.824L57.7528 30.336ZM65.7091 33.696L64.8931 31.712C65.4585 31.52 65.9758 31.296 66.4451 31.04C66.9251 30.784 67.3411 30.5013 67.6931 30.192C68.0451 29.8827 68.3171 29.5467 68.5091 29.184C68.7011 28.8107 68.7971 28.4107 68.7971 27.984C68.7971 27.536 68.6958 27.0453 68.4931 26.512C68.2905 25.9787 68.0451 25.4347 67.7571 24.88L69.8531 23.872C70.0451 24.2027 70.2105 24.56 70.3491 24.944C70.4985 25.3173 70.6211 25.6533 70.7171 25.952C70.8131 26.2507 70.8771 26.4533 70.9091 26.56C71.0585 27.072 71.2611 27.4133 71.5171 27.584C71.7838 27.7547 72.2105 27.84 72.7971 27.84C73.2025 27.84 73.4905 27.9467 73.6611 28.16C73.8425 28.3627 73.9331 28.6187 73.9331 28.928C73.9331 29.2587 73.8211 29.536 73.5971 29.76C73.3731 29.9733 73.0531 30.08 72.6371 30.08C72.1998 30.08 71.8158 30.016 71.4851 29.888C71.1545 29.76 70.8878 29.5733 70.6851 29.328C70.4931 29.0827 70.3705 28.7947 70.3171 28.464L70.9091 28.8C70.8451 29.3653 70.6585 29.8987 70.3491 30.4C70.0505 30.912 69.6611 31.3813 69.1811 31.808C68.7011 32.2347 68.1625 32.608 67.5651 32.928C66.9678 33.248 66.3491 33.504 65.7091 33.696ZM72.6562 30.08L72.8163 27.84H77.4243C77.8296 27.84 78.1176 27.9467 78.2883 28.16C78.4696 28.3627 78.5603 28.6187 78.5603 28.928C78.5603 29.2587 78.4483 29.536 78.2243 29.76C78.0003 29.9733 77.6803 30.08 77.2643 30.08H72.6562ZM77.2812 30.08L77.4413 27.84H82.0493C82.4546 27.84 82.7426 27.9467 82.9133 28.16C83.0946 28.3627 83.1853 28.6187 83.1853 28.928C83.1853 29.2587 83.0733 29.536 82.8493 29.76C82.6253 29.9733 82.3053 30.08 81.8893 30.08H77.2812ZM81.9062 30.08L82.0663 27.84C82.4503 27.84 82.7809 27.8027 83.0583 27.728C83.3356 27.6533 83.5703 27.504 83.7623 27.28C83.9543 27.0453 84.1143 26.704 84.2423 26.256C84.3809 25.808 84.5036 25.2107 84.6103 24.464L86.7063 24.816C86.6849 24.976 86.6529 25.1627 86.6102 25.376C86.5783 25.5893 86.5463 25.808 86.5143 26.032C86.4929 26.2453 86.4823 26.448 86.4823 26.64C86.4823 26.832 86.5196 27.0027 86.5943 27.152C86.6689 27.3013 86.7863 27.4293 86.9463 27.536C87.1169 27.632 87.3356 27.7067 87.6023 27.76C87.8796 27.8133 88.2156 27.84 88.6103 27.84C89.0156 27.84 89.3036 27.9467 89.4743 28.16C89.6449 28.3627 89.7303 28.6187 89.7303 28.928C89.7303 29.2587 89.6183 29.536 89.3943 29.76C89.1809 29.9733 88.8663 30.08 88.4503 30.08C87.9703 30.08 87.5329 30.0427 87.1383 29.968C86.7543 29.8933 86.4183 29.7707 86.1302 29.6C85.8529 29.4187 85.6236 29.184 85.4423 28.896C85.2716 28.5973 85.1649 28.2347 85.1223 27.808H85.8903C85.6983 28.32 85.4529 28.7307 85.1543 29.04C84.8663 29.3387 84.5409 29.5627 84.1783 29.712C83.8156 29.8613 83.4369 29.9573 83.0423 30C82.6583 30.0533 82.2796 30.08 81.9062 30.08ZM87.0423 23.024C86.7329 23.024 86.4663 22.9173 86.2423 22.704C86.0289 22.48 85.9223 22.2187 85.9223 21.92C85.9223 21.6107 86.0289 21.344 86.2423 21.12C86.4663 20.896 86.7329 20.784 87.0423 20.784C87.3409 20.784 87.5969 20.896 87.8103 21.12C88.0236 21.344 88.1303 21.6107 88.1303 21.92C88.1303 22.2187 88.0236 22.48 87.8103 22.704C87.5969 22.9173 87.3409 23.024 87.0423 23.024ZM84.2743 23.008C83.9649 23.008 83.6983 22.9013 83.4743 22.688C83.2609 22.464 83.1543 22.2027 83.1543 21.904C83.1543 21.5947 83.2609 21.328 83.4743 21.104C83.6983 20.88 83.9649 20.768 84.2743 20.768C84.5729 20.768 84.8289 20.88 85.0423 21.104C85.2556 21.328 85.3623 21.5947 85.3623 21.904C85.3623 22.2027 85.2556 22.464 85.0423 22.688C84.8289 22.9013 84.5729 23.008 84.2743 23.008ZM88.4531 30.08L88.6131 27.84C88.9651 27.84 89.2531 27.8133 89.4771 27.76C89.7011 27.696 89.8825 27.5627 90.0211 27.36C90.1705 27.1467 90.2985 26.832 90.4051 26.416C90.5225 25.9893 90.6505 25.4133 90.7891 24.688L92.8691 25.072C92.8371 25.232 92.7998 25.4187 92.7571 25.632C92.7145 25.8453 92.6771 26.064 92.6451 26.288C92.6131 26.5013 92.5971 26.6933 92.5971 26.864C92.5971 27.1627 92.6931 27.4027 92.8851 27.584C93.0771 27.7547 93.4398 27.84 93.9731 27.84C94.2398 27.84 94.4691 27.8133 94.6611 27.76C94.8638 27.696 95.0345 27.5627 95.1731 27.36C95.3225 27.1467 95.4505 26.8213 95.5571 26.384C95.6745 25.936 95.7865 25.3333 95.8931 24.576L98.0051 24.912C97.9625 25.1573 97.9198 25.4187 97.8771 25.696C97.8345 25.9733 97.7971 26.2293 97.7651 26.464C97.7331 26.6987 97.7171 26.8907 97.7171 27.04C97.7171 27.1787 97.7545 27.312 97.8291 27.44C97.9145 27.5573 98.0638 27.6533 98.2771 27.728C98.5011 27.8027 98.8158 27.84 99.2211 27.84C99.5091 27.84 99.7545 27.8027 99.9571 27.728C100.17 27.6533 100.33 27.5307 100.437 27.36C100.554 27.1893 100.613 26.9653 100.613 26.688C100.613 26.2933 100.522 25.776 100.341 25.136C100.16 24.496 99.9465 23.824 99.7011 23.12L101.957 22.448C102.128 22.9067 102.277 23.3973 102.405 23.92C102.544 24.432 102.65 24.9333 102.725 25.424C102.81 25.904 102.853 26.3253 102.853 26.688C102.853 27.232 102.768 27.7173 102.597 28.144C102.426 28.56 102.186 28.912 101.877 29.2C101.568 29.488 101.2 29.7067 100.773 29.856C100.346 30.0053 99.8771 30.08 99.3651 30.08C98.7465 30.08 98.2398 30.0213 97.8451 29.904C97.4505 29.776 97.1465 29.568 96.9331 29.28C96.7305 28.9813 96.5971 28.576 96.5331 28.064H97.0771C96.8531 28.6933 96.6025 29.152 96.3251 29.44C96.0478 29.7173 95.7171 29.8933 95.3331 29.968C94.9598 30.0427 94.4905 30.08 93.9251 30.08C93.5731 30.08 93.2105 30.0427 92.8371 29.968C92.4745 29.8827 92.1491 29.6907 91.8611 29.392C91.5731 29.0933 91.3598 28.6293 91.2211 28L92.0851 27.968C91.8611 28.5973 91.5678 29.0613 91.2051 29.36C90.8531 29.6587 90.4478 29.856 89.9891 29.952C89.5305 30.0373 89.0185 30.08 88.4531 30.08ZM96.8211 20.176C96.5545 20.176 96.3198 20.0747 96.1171 19.872C95.9251 19.6693 95.8291 19.4293 95.8291 19.152C95.8291 18.8747 95.9251 18.64 96.1171 18.448C96.3198 18.256 96.5545 18.16 96.8211 18.16C97.0985 18.16 97.3331 18.256 97.5251 18.448C97.7171 18.64 97.8131 18.8747 97.8131 19.152C97.8131 19.4293 97.7171 19.6693 97.5251 19.872C97.3331 20.0747 97.0985 20.176 96.8211 20.176ZM95.5411 22.288C95.2745 22.288 95.0398 22.1867 94.8371 21.984C94.6451 21.7813 94.5491 21.5413 94.5491 21.264C94.5491 20.9867 94.6451 20.752 94.8371 20.56C95.0398 20.368 95.2745 20.272 95.5411 20.272C95.8185 20.272 96.0531 20.368 96.2451 20.56C96.4371 20.752 96.5331 20.9867 96.5331 21.264C96.5331 21.5413 96.4371 21.7813 96.2451 21.984C96.0531 22.1867 95.8185 22.288 95.5411 22.288ZM98.0211 22.288C97.7545 22.288 97.5198 22.1867 97.3171 21.984C97.1251 21.7813 97.0291 21.5413 97.0291 21.264C97.0291 20.9867 97.1251 20.752 97.3171 20.56C97.5198 20.368 97.7545 20.272 98.0211 20.272C98.2985 20.272 98.5331 20.368 98.7251 20.56C98.9171 20.752 99.0131 20.9867 99.0131 21.264C99.0131 21.5413 98.9171 21.7813 98.7251 21.984C98.5331 22.1867 98.2985 22.288 98.0211 22.288ZM104.936 30L104.6 18.288H106.84L107.176 30H104.936ZM104.84 34.944L104.568 33.824C104.942 33.76 105.219 33.7067 105.4 33.664C105.592 33.6213 105.795 33.5733 106.008 33.52L105.848 33.92C105.571 33.824 105.304 33.632 105.048 33.344C104.803 33.0667 104.68 32.7467 104.68 32.384C104.68 32 104.766 31.6907 104.936 31.456C105.107 31.2213 105.326 31.0507 105.592 30.944C105.859 30.8373 106.136 30.784 106.424 30.784C106.584 30.784 106.734 30.7947 106.872 30.816C107.022 30.8373 107.155 30.8693 107.272 30.912L107.144 32.064C107.038 32.0427 106.931 32.0213 106.824 32C106.718 31.9787 106.6 31.968 106.472 31.968C106.334 31.968 106.206 32.0107 106.088 32.096C105.982 32.192 105.928 32.304 105.928 32.432C105.928 32.6133 105.992 32.7733 106.12 32.912C106.248 33.0507 106.398 33.1573 106.568 33.232C106.75 33.3173 106.899 33.3653 107.016 33.376L106.136 33.472C106.424 33.3973 106.696 33.3173 106.952 33.232C107.208 33.1573 107.448 33.0773 107.672 32.992L107.992 34.064C107.726 34.16 107.411 34.2613 107.048 34.368C106.696 34.4853 106.328 34.592 105.944 34.688C105.571 34.784 105.203 34.8693 104.84 34.944Z" fill="white"/>
</svg>
