<svg width="250" height="48" viewBox="0 0 250 48" fill="none" xmlns="http://www.w3.org/2000/svg">
<rect x="0.5" y="0.5" width="249" height="47" rx="19.5" stroke="#534089"/>
<path d="M54.5249 33.68L54.0609 32.464C55.1383 32.1227 55.9649 31.712 56.5409 31.232C57.1276 30.7627 57.5276 30.272 57.7409 29.76C57.9649 29.248 58.0769 28.7573 58.0769 28.288C58.0769 27.9893 58.0449 27.7013 57.9809 27.424C57.9169 27.1467 57.8049 26.832 57.6449 26.48C57.4849 26.128 57.2609 25.6907 56.9729 25.168L58.1409 24.576C58.5463 25.2693 58.8343 25.9253 59.0049 26.544C59.1863 27.1627 59.2769 27.7067 59.2769 28.176C59.2769 28.848 59.1649 29.456 58.9409 30C58.7276 30.544 58.4396 31.024 58.0769 31.44C57.7249 31.8667 57.3356 32.2293 56.9089 32.528C56.4929 32.8267 56.0716 33.072 55.6449 33.264C55.2289 33.456 54.8556 33.5947 54.5249 33.68ZM64.9919 30.08C64.1386 30.08 63.4826 29.984 63.0239 29.792C62.5759 29.6 62.2666 29.3013 62.0959 28.896C61.9253 28.4907 61.8293 27.968 61.8079 27.328L61.4879 18.576H62.7999L63.1199 26.816C63.1413 27.3387 63.1893 27.744 63.2639 28.032C63.3493 28.3093 63.5306 28.5013 63.8079 28.608C64.0959 28.7147 64.5439 28.768 65.1519 28.768C65.3759 28.768 65.5359 28.832 65.6319 28.96C65.7386 29.0773 65.7919 29.2213 65.7919 29.392C65.7919 29.5627 65.7173 29.7227 65.5679 29.872C65.4186 30.0107 65.2266 30.08 64.9919 30.08ZM64.9922 30.08L65.1522 28.768C65.6002 28.768 65.9522 28.7307 66.2082 28.656C66.4642 28.5707 66.6562 28.416 66.7842 28.192C66.9229 27.9573 67.0402 27.6213 67.1362 27.184C67.2322 26.7467 67.3495 26.176 67.4882 25.472L68.7362 25.712C68.6935 25.904 68.6455 26.1173 68.5922 26.352C68.5389 26.5867 68.4909 26.8213 68.4482 27.056C68.4162 27.28 68.4002 27.4773 68.4002 27.648C68.4002 27.8613 68.4482 28.0533 68.5442 28.224C68.6402 28.3947 68.8482 28.528 69.1682 28.624C69.4882 28.72 69.9789 28.768 70.6402 28.768C70.8642 28.768 71.0242 28.832 71.1202 28.96C71.2269 29.0773 71.2802 29.2213 71.2802 29.392C71.2802 29.5627 71.2055 29.7227 71.0562 29.872C70.9069 30.0107 70.7149 30.08 70.4802 30.08C69.7869 30.08 69.2429 30.0213 68.8482 29.904C68.4535 29.776 68.1655 29.5893 67.9842 29.344C67.8029 29.088 67.6802 28.7787 67.6162 28.416L68.0962 28.448C67.9255 28.7893 67.7389 29.0667 67.5362 29.28C67.3442 29.4933 67.1309 29.6587 66.8962 29.776C66.6615 29.8933 66.3895 29.9733 66.0802 30.016C65.7709 30.0587 65.4082 30.08 64.9922 30.08ZM67.7122 33.056C67.4882 33.056 67.2962 32.976 67.1362 32.816C66.9869 32.6667 66.9122 32.4853 66.9122 32.272C66.9122 32.0587 66.9869 31.872 67.1362 31.712C67.2962 31.552 67.4882 31.472 67.7122 31.472C67.9255 31.472 68.1069 31.552 68.2562 31.712C68.4162 31.872 68.4962 32.0587 68.4962 32.272C68.4962 32.4853 68.4162 32.6667 68.2562 32.816C68.1069 32.976 67.9255 33.056 67.7122 33.056ZM70.4766 30.08L70.6206 28.768C71.1752 28.768 71.7192 28.7253 72.2526 28.64C72.7859 28.5547 73.3086 28.432 73.8206 28.272C74.3326 28.112 74.8232 27.92 75.2926 27.696C75.7726 27.4613 76.2259 27.1947 76.6526 26.896C76.3752 26.6507 76.0552 26.4373 75.6926 26.256C75.3299 26.0747 74.9299 25.936 74.4926 25.84C74.0659 25.7333 73.6126 25.68 73.1326 25.68C72.9619 25.68 72.8019 25.6853 72.6526 25.696C72.5032 25.7067 72.3539 25.728 72.2046 25.76C72.0552 25.7813 71.8846 25.8133 71.6926 25.856L71.4366 24.64C71.7246 24.5547 72.0126 24.4907 72.3006 24.448C72.5886 24.3947 72.8659 24.368 73.1326 24.368C73.6872 24.368 74.1886 24.4373 74.6366 24.576C75.0846 24.704 75.4899 24.864 75.8526 25.056C76.2259 25.248 76.5726 25.44 76.8926 25.632C77.2232 25.824 77.5432 25.9893 77.8526 26.128C78.1619 26.256 78.4819 26.32 78.8126 26.32H79.1486L79.2606 27.472C78.8019 27.472 78.3806 27.536 77.9966 27.664C77.6126 27.792 77.2339 27.9573 76.8606 28.16C76.4979 28.352 76.1139 28.56 75.7086 28.784C75.3032 28.9973 74.8552 29.2053 74.3646 29.408C73.8739 29.6 73.3086 29.76 72.6686 29.888C72.0392 30.016 71.3086 30.08 70.4766 30.08ZM73.1486 22.72C72.9246 22.72 72.7326 22.6453 72.5726 22.496C72.4232 22.336 72.3486 22.1493 72.3486 21.936C72.3486 21.7227 72.4232 21.536 72.5726 21.376C72.7326 21.216 72.9246 21.136 73.1486 21.136C73.3619 21.136 73.5432 21.216 73.6926 21.376C73.8526 21.536 73.9326 21.7227 73.9326 21.936C73.9326 22.1493 73.8526 22.336 73.6926 22.496C73.5432 22.6453 73.3619 22.72 73.1486 22.72ZM86.1864 21.424C86.1864 21.1893 86.1704 20.9067 86.1384 20.576C86.1064 20.2453 86.0691 19.9147 86.0264 19.584C85.9838 19.2533 85.9411 18.9707 85.8984 18.736L87.2744 18.576C87.3064 18.7893 87.3384 19.072 87.3704 19.424C87.4131 19.7653 87.4451 20.1067 87.4664 20.448C87.4878 20.7893 87.4984 21.072 87.4984 21.296C87.4984 21.808 87.4611 22.3093 87.3864 22.8C87.3224 23.28 87.2158 23.7547 87.0664 24.224C86.9171 24.6827 86.7198 25.1307 86.4744 25.568L86.2824 25.92C85.9838 26.4213 85.6158 26.9067 85.1784 27.376C84.7411 27.8347 84.2291 28.272 83.6424 28.688H85.6584C86.0211 28.688 86.2984 28.6453 86.4904 28.56C86.6824 28.464 86.8104 28.3413 86.8744 28.192C86.9491 28.0427 86.9864 27.8827 86.9864 27.712C86.9864 27.424 86.8104 27.0667 86.4584 26.64C86.1171 26.2027 85.6424 25.7227 85.0344 25.2C84.4264 24.6667 83.7384 24.1067 82.9704 23.52C82.2024 22.9333 81.3918 22.336 80.5384 21.728L81.2904 20.672C82.2718 21.3973 83.1358 22.0533 83.8824 22.64C84.6398 23.2267 85.2851 23.7653 85.8184 24.256C86.3624 24.736 86.8051 25.184 87.1464 25.6C87.4984 26.0053 87.7544 26.3947 87.9144 26.768C88.0851 27.1307 88.1704 27.488 88.1704 27.84C88.1704 28.0747 88.1278 28.32 88.0424 28.576C87.9678 28.8213 87.8291 29.056 87.6264 29.28C87.4344 29.4933 87.1571 29.6693 86.7944 29.808C86.4424 29.936 85.9838 30 85.4184 30H81.7384V28.704C82.8371 27.9147 83.7064 27.1467 84.3464 26.4C84.9971 25.6533 85.4664 24.8747 85.7544 24.064C86.0424 23.2533 86.1864 22.3733 86.1864 21.424ZM80.3144 19.824L80.1224 18.96C80.3998 18.896 80.6238 18.8427 80.7944 18.8C80.9651 18.7573 81.1571 18.7093 81.3704 18.656L81.2904 18.992C81.0131 18.9067 80.7464 18.7253 80.4904 18.448C80.2451 18.1707 80.1224 17.856 80.1224 17.504C80.1224 17.184 80.1971 16.9173 80.3464 16.704C80.5064 16.48 80.7091 16.3147 80.9544 16.208C81.2104 16.1013 81.4824 16.048 81.7704 16.048C81.8878 16.048 82.0104 16.0587 82.1384 16.08C82.2771 16.1013 82.4051 16.1333 82.5224 16.176L82.3944 16.976C82.2878 16.9547 82.1864 16.9333 82.0904 16.912C81.9944 16.8907 81.8878 16.88 81.7704 16.88C81.5251 16.88 81.3331 16.9333 81.1944 17.04C81.0558 17.136 80.9864 17.2747 80.9864 17.456C80.9864 17.68 81.0558 17.872 81.1944 18.032C81.3438 18.192 81.5091 18.32 81.6904 18.416C81.8824 18.5013 82.0371 18.544 82.1544 18.544L81.4984 18.608C81.7864 18.5333 82.0531 18.4587 82.2984 18.384C82.5544 18.2987 82.7838 18.2187 82.9864 18.144L83.2424 18.96C82.9864 19.056 82.6824 19.1573 82.3304 19.264C81.9891 19.3707 81.6424 19.472 81.2904 19.568C80.9384 19.664 80.6131 19.7493 80.3144 19.824ZM90.6829 30L90.3629 18.576H91.6589L91.9789 30H90.6829ZM98.0034 30.016C98.0034 29.632 98.0568 29.2053 98.1634 28.736C98.2701 28.2667 98.4408 27.7493 98.6754 27.184L99.8274 27.632C99.6568 28.08 99.5288 28.4907 99.4434 28.864C99.3581 29.2373 99.3154 29.584 99.3154 29.904C99.3154 30.4907 99.4594 30.9653 99.7474 31.328C100.046 31.7013 100.441 31.9733 100.931 32.144C101.433 32.3147 101.982 32.4 102.579 32.4C103.305 32.4 103.913 32.32 104.403 32.16C104.894 32.0107 105.283 31.8027 105.571 31.536C105.859 31.2693 106.062 30.9653 106.179 30.624C106.307 30.2933 106.371 29.9467 106.371 29.584C106.371 29.1147 106.334 28.672 106.259 28.256C106.195 27.84 106.105 27.4347 105.987 27.04C105.881 26.6347 105.763 26.224 105.635 25.808L106.931 25.456C107.049 25.8613 107.139 26.192 107.203 26.448C107.267 26.6933 107.315 26.8907 107.347 27.04C107.39 27.1893 107.427 27.3227 107.459 27.44C107.577 27.8347 107.731 28.128 107.923 28.32C108.115 28.5013 108.334 28.624 108.579 28.688C108.835 28.7413 109.097 28.768 109.363 28.768C109.587 28.768 109.747 28.832 109.843 28.96C109.95 29.0773 110.003 29.2213 110.003 29.392C110.003 29.5627 109.929 29.7227 109.779 29.872C109.63 30.0107 109.438 30.08 109.203 30.08C108.755 30.08 108.382 30.0053 108.083 29.856C107.785 29.696 107.55 29.4987 107.379 29.264C107.219 29.0293 107.113 28.784 107.059 28.528L107.715 29.344C107.683 29.888 107.577 30.416 107.395 30.928C107.225 31.4507 106.947 31.92 106.563 32.336C106.179 32.7627 105.657 33.0987 104.995 33.344C104.345 33.5893 103.523 33.712 102.531 33.712C101.923 33.712 101.347 33.6373 100.803 33.488C100.259 33.3387 99.7741 33.1093 99.3474 32.8C98.9314 32.5013 98.6008 32.1173 98.3554 31.648C98.1208 31.1893 98.0034 30.6453 98.0034 30.016ZM102.835 23.632C102.611 23.632 102.419 23.5573 102.259 23.408C102.11 23.248 102.035 23.0613 102.035 22.848C102.035 22.6347 102.11 22.448 102.259 22.288C102.419 22.128 102.611 22.048 102.835 22.048C103.049 22.048 103.23 22.128 103.379 22.288C103.539 22.448 103.619 22.6347 103.619 22.848C103.619 23.0613 103.539 23.248 103.379 23.408C103.23 23.5573 103.049 23.632 102.835 23.632ZM109.211 30.08L109.371 28.768C109.67 28.768 109.92 28.704 110.123 28.576C110.326 28.448 110.523 28.2347 110.715 27.936C110.907 27.6373 111.115 27.2373 111.339 26.736C111.648 26.0533 111.952 25.536 112.251 25.184C112.56 24.832 112.864 24.592 113.163 24.464C113.472 24.336 113.776 24.272 114.075 24.272C114.438 24.272 114.774 24.368 115.083 24.56C115.392 24.7413 115.664 24.9867 115.899 25.296C116.134 25.6053 116.315 25.9467 116.443 26.32C116.582 26.6827 116.651 27.0453 116.651 27.408C116.651 28.048 116.539 28.56 116.315 28.944C116.091 29.3173 115.803 29.5893 115.451 29.76C115.11 29.92 114.752 30 114.379 30C114.048 30 113.622 29.936 113.099 29.808C112.587 29.68 111.936 29.3547 111.147 28.832L111.771 27.824C112.294 28.1547 112.763 28.384 113.179 28.512C113.606 28.6293 113.958 28.688 114.235 28.688C114.544 28.688 114.79 28.6453 114.971 28.56C115.152 28.464 115.286 28.3307 115.371 28.16C115.456 27.9893 115.499 27.7973 115.499 27.584C115.499 27.2747 115.424 26.9653 115.275 26.656C115.126 26.3467 114.934 26.0907 114.699 25.888C114.475 25.6853 114.235 25.584 113.979 25.584C113.787 25.584 113.6 25.6373 113.419 25.744C113.238 25.8507 113.051 26.048 112.859 26.336C112.667 26.624 112.448 27.04 112.203 27.584C111.947 28.16 111.702 28.6187 111.467 28.96C111.243 29.2907 111.014 29.536 110.779 29.696C110.544 29.856 110.299 29.9573 110.043 30C109.798 30.0533 109.52 30.08 109.211 30.08ZM125.557 28.768C126.091 28.768 126.512 28.7147 126.821 28.608C127.141 28.5013 127.371 28.3467 127.509 28.144C127.659 27.9307 127.733 27.6853 127.733 27.408C127.733 27.1947 127.675 26.9387 127.557 26.64C127.451 26.3413 127.301 26.0107 127.109 25.648C126.917 25.2747 126.693 24.8853 126.437 24.48C126.192 24.064 125.925 23.6427 125.637 23.216L126.741 22.496C127.157 23.1253 127.52 23.7227 127.829 24.288C128.139 24.8427 128.4 25.3653 128.613 25.856C128.827 26.336 128.997 26.7893 129.125 27.216C129.275 27.6853 129.44 28.032 129.621 28.256C129.813 28.48 130.011 28.624 130.213 28.688C130.416 28.7413 130.603 28.768 130.773 28.768C130.997 28.768 131.163 28.832 131.269 28.96C131.376 29.0773 131.429 29.2213 131.429 29.392C131.429 29.5627 131.355 29.7227 131.205 29.872C131.056 30.0107 130.864 30.08 130.629 30.08C130.277 30.08 129.931 30.016 129.589 29.888C129.259 29.7493 128.971 29.5307 128.725 29.232C128.48 28.9227 128.309 28.512 128.213 28L128.853 27.488C128.853 27.9147 128.763 28.3307 128.581 28.736C128.4 29.1307 128.069 29.456 127.589 29.712C127.12 29.968 126.443 30.096 125.557 30.096C125.173 30.096 124.8 30.064 124.437 30C124.085 29.936 123.76 29.8453 123.461 29.728C123.163 29.6 122.901 29.4507 122.677 29.28L123.317 28.176C123.531 28.3147 123.829 28.448 124.213 28.576C124.597 28.704 125.045 28.768 125.557 28.768ZM130.633 30.08L130.793 28.768C131.422 28.768 131.913 28.7467 132.265 28.704C132.617 28.6507 132.867 28.528 133.017 28.336C133.166 28.1333 133.241 27.8187 133.241 27.392C133.241 27.1253 133.198 26.8107 133.113 26.448C133.027 26.0747 132.915 25.68 132.777 25.264C132.638 24.848 132.489 24.4373 132.329 24.032L133.625 23.552C133.763 23.8933 133.891 24.2827 134.009 24.72C134.137 25.1573 134.243 25.5893 134.329 26.016C134.414 26.4427 134.457 26.816 134.457 27.136C134.457 27.6693 134.382 28.1227 134.233 28.496C134.094 28.8693 133.87 29.1733 133.561 29.408C133.251 29.6427 132.851 29.8133 132.361 29.92C131.881 30.0267 131.305 30.08 130.633 30.08ZM133.593 33.104C133.369 33.104 133.177 33.024 133.017 32.864C132.867 32.7147 132.793 32.5333 132.793 32.32C132.793 32.1067 132.867 31.92 133.017 31.76C133.177 31.6 133.369 31.52 133.593 31.52C133.806 31.52 133.987 31.6 134.137 31.76C134.297 31.92 134.377 32.1067 134.377 32.32C134.377 32.5333 134.297 32.7147 134.137 32.864C133.987 33.024 133.806 33.104 133.593 33.104ZM131.401 33.104C131.177 33.104 130.985 33.024 130.825 32.864C130.675 32.7147 130.601 32.5333 130.601 32.32C130.601 32.1067 130.675 31.92 130.825 31.76C130.985 31.6 131.177 31.52 131.401 31.52C131.614 31.52 131.795 31.6 131.945 31.76C132.105 31.92 132.185 32.1067 132.185 32.32C132.185 32.5333 132.105 32.7147 131.945 32.864C131.795 33.024 131.614 33.104 131.401 33.104ZM135.478 33.712L135.014 32.496C135.793 32.24 136.438 31.9467 136.95 31.616C137.473 31.2853 137.883 30.9333 138.182 30.56C138.491 30.1867 138.71 29.808 138.838 29.424C138.966 29.0293 139.03 28.6507 139.03 28.288C139.03 27.7653 138.913 27.2373 138.678 26.704C138.454 26.16 138.203 25.648 137.926 25.168L139.094 24.576C139.297 24.9493 139.473 25.3173 139.622 25.68C139.782 26.0427 139.921 26.384 140.038 26.704C140.166 27.024 140.267 27.3173 140.342 27.584C140.491 28.0427 140.683 28.3573 140.918 28.528C141.163 28.688 141.494 28.768 141.91 28.768C142.134 28.768 142.294 28.832 142.39 28.96C142.497 29.0773 142.55 29.2213 142.55 29.392C142.55 29.5627 142.475 29.7227 142.326 29.872C142.177 30.0107 141.985 30.08 141.75 30.08C141.281 30.08 140.897 30 140.598 29.84C140.31 29.6693 140.091 29.4507 139.942 29.184C139.793 28.9067 139.691 28.6187 139.638 28.32L140.15 28.608C140.15 29.312 139.99 29.952 139.67 30.528C139.361 31.1147 138.961 31.6213 138.47 32.048C137.979 32.4853 137.467 32.8427 136.934 33.12C136.401 33.3973 135.915 33.5947 135.478 33.712ZM138.022 22.736C137.798 22.736 137.606 22.6613 137.446 22.512C137.297 22.352 137.222 22.1653 137.222 21.952C137.222 21.7387 137.297 21.552 137.446 21.392C137.606 21.232 137.798 21.152 138.022 21.152C138.235 21.152 138.417 21.232 138.566 21.392C138.726 21.552 138.806 21.7387 138.806 21.952C138.806 22.1653 138.726 22.352 138.566 22.512C138.417 22.6613 138.235 22.736 138.022 22.736ZM141.758 30.08L141.918 28.768C142.216 28.768 142.467 28.704 142.67 28.576C142.872 28.448 143.07 28.2347 143.262 27.936C143.454 27.6373 143.662 27.2373 143.886 26.736C144.195 26.0533 144.499 25.536 144.798 25.184C145.107 24.832 145.411 24.592 145.71 24.464C146.019 24.336 146.323 24.272 146.622 24.272C146.984 24.272 147.32 24.368 147.63 24.56C147.939 24.7413 148.211 24.9867 148.446 25.296C148.68 25.6053 148.862 25.9467 148.99 26.32C149.128 26.6827 149.198 27.0453 149.198 27.408C149.198 28.048 149.086 28.56 148.862 28.944C148.638 29.3173 148.35 29.5893 147.998 29.76C147.656 29.92 147.299 30 146.926 30C146.595 30 146.168 29.936 145.646 29.808C145.134 29.68 144.483 29.3547 143.694 28.832L144.318 27.824C144.84 28.1547 145.31 28.384 145.726 28.512C146.152 28.6293 146.504 28.688 146.782 28.688C147.091 28.688 147.336 28.6453 147.518 28.56C147.699 28.464 147.832 28.3307 147.918 28.16C148.003 27.9893 148.046 27.7973 148.046 27.584C148.046 27.2747 147.971 26.9653 147.822 26.656C147.672 26.3467 147.48 26.0907 147.246 25.888C147.022 25.6853 146.782 25.584 146.526 25.584C146.334 25.584 146.147 25.6373 145.966 25.744C145.784 25.8507 145.598 26.048 145.406 26.336C145.214 26.624 144.995 27.04 144.75 27.584C144.494 28.16 144.248 28.6187 144.014 28.96C143.79 29.2907 143.56 29.536 143.326 29.696C143.091 29.856 142.846 29.9573 142.59 30C142.344 30.0533 142.067 30.08 141.758 30.08ZM155.144 30.016C155.144 29.76 155.165 29.488 155.208 29.2C155.261 28.9013 155.336 28.5867 155.432 28.256C155.539 27.9147 155.667 27.5573 155.816 27.184L156.968 27.632C156.861 27.9307 156.765 28.2133 156.68 28.48C156.605 28.7467 156.547 28.9973 156.504 29.232C156.472 29.4667 156.456 29.6907 156.456 29.904C156.456 30.448 156.6 30.9067 156.888 31.28C157.176 31.6533 157.549 31.9307 158.008 32.112C158.477 32.304 158.979 32.4 159.512 32.4C160.557 32.4 161.373 32.2133 161.96 31.84C162.547 31.4773 162.957 30.992 163.192 30.384C163.427 29.7867 163.528 29.1307 163.496 28.416L163.144 18.576H164.472L164.728 26.688C164.749 27.232 164.835 27.6587 164.984 27.968C165.144 28.2667 165.357 28.4747 165.624 28.592C165.891 28.7093 166.184 28.768 166.504 28.768C166.728 28.768 166.888 28.832 166.984 28.96C167.091 29.0773 167.144 29.2213 167.144 29.392C167.144 29.5627 167.069 29.7227 166.92 29.872C166.771 30.0107 166.579 30.08 166.344 30.08C166.013 30.08 165.731 30.0373 165.496 29.952C165.261 29.856 165.069 29.7387 164.92 29.6C164.771 29.4507 164.653 29.2853 164.568 29.104C164.483 28.912 164.419 28.72 164.376 28.528L164.824 28.976C164.781 29.5413 164.659 30.1013 164.456 30.656C164.264 31.2213 163.965 31.7333 163.56 32.192C163.155 32.6507 162.611 33.0187 161.928 33.296C161.256 33.5733 160.424 33.712 159.432 33.712C158.877 33.712 158.339 33.6267 157.816 33.456C157.304 33.296 156.845 33.056 156.44 32.736C156.045 32.416 155.731 32.0267 155.496 31.568C155.261 31.12 155.144 30.6027 155.144 30.016ZM166.352 30.08L166.512 28.768C167.045 28.768 167.461 28.7307 167.76 28.656C168.058 28.5707 168.282 28.416 168.432 28.192C168.592 27.9573 168.72 27.6213 168.816 27.184C168.912 26.7467 169.029 26.176 169.168 25.472L170.416 25.712C170.373 25.904 170.325 26.1173 170.272 26.352C170.218 26.5867 170.17 26.8213 170.128 27.056C170.096 27.28 170.08 27.4773 170.08 27.648C170.08 27.808 170.09 27.9573 170.112 28.096C170.133 28.2347 170.213 28.352 170.352 28.448C170.49 28.544 170.725 28.624 171.056 28.688C171.386 28.7413 171.861 28.768 172.48 28.768C172.704 28.768 172.864 28.832 172.96 28.96C173.066 29.0773 173.12 29.2213 173.12 29.392C173.12 29.5627 173.045 29.7227 172.896 29.872C172.746 30.0107 172.554 30.08 172.32 30.08C171.669 30.08 171.152 30.048 170.768 29.984C170.384 29.9093 170.09 29.8027 169.888 29.664C169.696 29.5253 169.557 29.3547 169.472 29.152C169.397 28.9387 169.338 28.6933 169.296 28.416L169.776 28.448C169.605 28.7893 169.418 29.0667 169.216 29.28C169.024 29.4933 168.8 29.6587 168.544 29.776C168.288 29.8933 167.978 29.9733 167.616 30.016C167.264 30.0587 166.842 30.08 166.352 30.08ZM170.384 33.104C170.16 33.104 169.968 33.024 169.808 32.864C169.658 32.7147 169.584 32.5333 169.584 32.32C169.584 32.1067 169.658 31.92 169.808 31.76C169.968 31.6 170.16 31.52 170.384 31.52C170.597 31.52 170.778 31.6 170.928 31.76C171.088 31.92 171.168 32.1067 171.168 32.32C171.168 32.5333 171.088 32.7147 170.928 32.864C170.778 33.024 170.597 33.104 170.384 33.104ZM168.192 33.104C167.968 33.104 167.776 33.024 167.616 32.864C167.466 32.7147 167.392 32.5333 167.392 32.32C167.392 32.1067 167.466 31.92 167.616 31.76C167.776 31.6 167.968 31.52 168.192 31.52C168.405 31.52 168.586 31.6 168.736 31.76C168.896 31.92 168.976 32.1067 168.976 32.32C168.976 32.5333 168.896 32.7147 168.736 32.864C168.586 33.024 168.405 33.104 168.192 33.104ZM172.32 30.08L172.48 28.768C172.779 28.768 173.014 28.704 173.184 28.576C173.366 28.448 173.536 28.2347 173.696 27.936C173.867 27.6373 174.08 27.2373 174.336 26.736C174.592 26.224 174.848 25.808 175.104 25.488C175.371 25.1573 175.627 24.9013 175.872 24.72C176.128 24.528 176.368 24.3947 176.592 24.32C176.816 24.2453 177.024 24.208 177.216 24.208C177.568 24.208 177.883 24.288 178.16 24.448C178.438 24.5973 178.699 24.8587 178.944 25.232C179.19 25.5947 179.44 26.096 179.696 26.736C179.942 27.3227 180.16 27.7653 180.352 28.064C180.555 28.352 180.763 28.544 180.976 28.64C181.2 28.7253 181.451 28.768 181.728 28.768C181.952 28.768 182.112 28.832 182.208 28.96C182.315 29.0773 182.368 29.2213 182.368 29.392C182.368 29.5627 182.294 29.7227 182.144 29.872C181.995 30.0107 181.803 30.08 181.568 30.08C181.152 30.08 180.768 30.0107 180.416 29.872C180.075 29.7333 179.787 29.5147 179.552 29.216L179.776 28.88C179.659 29.2107 179.499 29.4827 179.296 29.696C179.104 29.8987 178.886 30.048 178.64 30.144C178.395 30.2507 178.134 30.304 177.856 30.304C177.504 30.304 177.142 30.2293 176.768 30.08C176.406 29.9307 176.054 29.7173 175.712 29.44C175.371 29.1627 175.072 28.8373 174.816 28.464C174.539 28.9547 174.272 29.3173 174.016 29.552C173.771 29.776 173.515 29.92 173.248 29.984C172.982 30.048 172.672 30.08 172.32 30.08ZM175.424 27.248C175.606 27.5467 175.798 27.808 176 28.032C176.214 28.256 176.427 28.4427 176.64 28.592C176.854 28.7307 177.062 28.8373 177.264 28.912C177.478 28.976 177.67 29.008 177.84 29.008C178.214 29.008 178.486 28.8747 178.656 28.608C178.838 28.3413 178.832 27.968 178.64 27.488C178.544 27.2427 178.443 27.0027 178.336 26.768C178.24 26.5333 178.134 26.32 178.016 26.128C177.899 25.9253 177.766 25.7707 177.616 25.664C177.467 25.5467 177.302 25.488 177.12 25.488C176.96 25.488 176.79 25.5413 176.608 25.648C176.438 25.7547 176.251 25.936 176.048 26.192C175.856 26.448 175.648 26.8 175.424 27.248ZM191.762 30.08C191.314 30.08 190.904 30.0533 190.53 30C190.157 29.936 189.821 29.824 189.522 29.664C189.224 29.504 188.973 29.2747 188.77 28.976C188.568 28.6667 188.413 28.2613 188.306 27.76L189.25 27.2C189.389 27.6267 189.56 27.952 189.762 28.176C189.965 28.4 190.237 28.5547 190.578 28.64C190.93 28.7253 191.378 28.768 191.922 28.768C192.146 28.768 192.306 28.832 192.402 28.96C192.509 29.0773 192.562 29.2213 192.562 29.392C192.562 29.5627 192.488 29.7227 192.338 29.872C192.189 30.0107 191.997 30.08 191.762 30.08ZM181.57 30.08L181.714 28.768C182.269 28.768 182.813 28.7253 183.346 28.64C183.88 28.5547 184.402 28.432 184.914 28.272C185.426 28.112 185.917 27.92 186.386 27.696C186.866 27.4613 187.32 27.1947 187.746 26.896C187.469 26.6507 187.149 26.4373 186.786 26.256C186.424 26.0747 186.024 25.936 185.586 25.84C185.16 25.7333 184.706 25.68 184.226 25.68C184.056 25.68 183.896 25.6853 183.746 25.696C183.597 25.7067 183.448 25.728 183.298 25.76C183.149 25.7813 182.978 25.8133 182.786 25.856L182.53 24.64C182.818 24.5547 183.106 24.4907 183.394 24.448C183.682 24.3947 183.96 24.368 184.226 24.368C184.781 24.368 185.282 24.4373 185.73 24.576C186.178 24.704 186.584 24.864 186.946 25.056C187.32 25.248 187.666 25.44 187.986 25.632C188.317 25.824 188.637 25.9893 188.946 26.128C189.256 26.256 189.576 26.32 189.906 26.32H190.242L190.354 27.472C189.896 27.472 189.474 27.536 189.09 27.664C188.706 27.792 188.328 27.9573 187.954 28.16C187.592 28.352 187.208 28.56 186.802 28.784C186.397 28.9973 185.949 29.2053 185.458 29.408C184.968 29.6 184.402 29.76 183.762 29.888C183.133 30.016 182.402 30.08 181.57 30.08ZM191.758 30.08L191.918 28.768C192.547 28.768 193.038 28.7467 193.39 28.704C193.742 28.6507 193.992 28.528 194.142 28.336C194.291 28.1333 194.366 27.8187 194.366 27.392C194.366 27.1253 194.323 26.8107 194.238 26.448C194.152 26.0747 194.04 25.68 193.902 25.264C193.763 24.848 193.614 24.4373 193.454 24.032L194.75 23.552C194.888 23.8933 195.016 24.2827 195.134 24.72C195.262 25.1573 195.368 25.5893 195.454 26.016C195.539 26.4427 195.582 26.816 195.582 27.136C195.582 27.6693 195.507 28.1227 195.358 28.496C195.219 28.8693 194.995 29.1733 194.686 29.408C194.376 29.6427 193.976 29.8133 193.486 29.92C193.006 30.0267 192.43 30.08 191.758 30.08ZM195.246 21.888C195.022 21.888 194.83 21.8133 194.67 21.664C194.52 21.504 194.446 21.3173 194.446 21.104C194.446 20.8907 194.52 20.704 194.67 20.544C194.83 20.384 195.022 20.304 195.246 20.304C195.459 20.304 195.64 20.384 195.79 20.544C195.95 20.704 196.03 20.8907 196.03 21.104C196.03 21.3173 195.95 21.504 195.79 21.664C195.64 21.8133 195.459 21.888 195.246 21.888ZM193.054 21.888C192.83 21.888 192.638 21.8133 192.478 21.664C192.328 21.504 192.254 21.3173 192.254 21.104C192.254 20.8907 192.328 20.704 192.478 20.544C192.638 20.384 192.83 20.304 193.054 20.304C193.267 20.304 193.448 20.384 193.598 20.544C193.758 20.704 193.838 20.8907 193.838 21.104C193.838 21.3173 193.758 21.504 193.598 21.664C193.448 21.8133 193.267 21.888 193.054 21.888Z" fill="#534089"/>
</svg>
