<svg width="250" height="48" viewBox="0 0 250 48" fill="none" xmlns="http://www.w3.org/2000/svg">
<rect x="0.5" y="0.5" width="249" height="47" rx="19.5" stroke="#534089"/>
<path d="M34.4984 31.984C34.2744 31.984 34.0824 31.904 33.9224 31.744C33.773 31.5947 33.6984 31.4133 33.6984 31.2C33.6984 30.9867 33.773 30.8 33.9224 30.64C34.0824 30.48 34.2744 30.4 34.4984 30.4C34.7117 30.4 34.893 30.48 35.0424 30.64C35.2024 30.8 35.2824 30.9867 35.2824 31.2C35.2824 31.4133 35.2024 31.5947 35.0424 31.744C34.893 31.904 34.7117 31.984 34.4984 31.984ZM39.6344 30.08C39.1757 30.08 38.7117 30.048 38.2424 29.984C37.7837 29.92 37.357 29.7653 36.9624 29.52C36.5677 29.2747 36.2424 28.896 35.9864 28.384C35.741 27.8613 35.6024 27.1467 35.5704 26.24L36.5944 25.696C36.6477 26.4107 36.765 26.976 36.9464 27.392C37.1384 27.7973 37.3784 28.1013 37.6664 28.304C37.9544 28.496 38.2797 28.624 38.6424 28.688C39.005 28.7413 39.3837 28.768 39.7784 28.768C40.0024 28.768 40.1624 28.832 40.2584 28.96C40.365 29.0773 40.4184 29.2213 40.4184 29.392C40.4184 29.5627 40.3437 29.7227 40.1944 29.872C40.0557 30.0107 39.869 30.08 39.6344 30.08ZM34.9944 36.304C34.2477 36.304 33.533 36.2187 32.8504 36.048C32.1784 35.8773 31.581 35.6107 31.0584 35.248C30.5464 34.896 30.141 34.448 29.8424 33.904C29.5437 33.36 29.3944 32.72 29.3944 31.984C29.3944 31.3653 29.485 30.7733 29.6664 30.208C29.8477 29.6533 30.109 29.1307 30.4504 28.64C30.8024 28.1387 31.229 27.68 31.7304 27.264C32.2317 26.848 32.8024 26.48 33.4424 26.16C34.0824 25.8293 34.781 25.552 35.5384 25.328L35.3624 25.536C35.085 25.4507 34.8024 25.36 34.5144 25.264C34.2264 25.1573 33.9277 25.0613 33.6184 24.976C33.309 24.88 32.9784 24.8053 32.6264 24.752C32.2744 24.6987 31.8957 24.672 31.4904 24.672C31.1704 24.672 30.8877 24.6987 30.6424 24.752C30.4077 24.8053 30.1837 24.8587 29.9704 24.912L29.7464 23.728C30.0237 23.6107 30.333 23.52 30.6744 23.456C31.0264 23.3813 31.3784 23.344 31.7304 23.344C32.221 23.344 32.6584 23.392 33.0424 23.488C33.4264 23.5733 33.789 23.68 34.1304 23.808C34.4824 23.936 34.8504 24.0693 35.2344 24.208C35.6184 24.336 36.045 24.448 36.5144 24.544C36.9944 24.6293 37.5597 24.6773 38.2104 24.688H38.3544L38.3864 26C37.8744 26 37.3304 26.0587 36.7544 26.176C36.1784 26.2933 35.6024 26.464 35.0264 26.688C34.461 26.912 33.917 27.1893 33.3944 27.52C32.8717 27.8507 32.4077 28.2347 32.0024 28.672C31.6077 29.0987 31.293 29.5733 31.0584 30.096C30.8237 30.6293 30.7064 31.2053 30.7064 31.824C30.7064 32.3787 30.8237 32.8533 31.0584 33.248C31.293 33.6533 31.613 33.984 32.0184 34.24C32.4344 34.496 32.909 34.6827 33.4424 34.8C33.9864 34.9173 34.557 34.976 35.1544 34.976C35.677 34.976 36.2104 34.9173 36.7544 34.8C37.309 34.6933 37.8477 34.5387 38.3704 34.336L38.8184 35.424C38.1997 35.7227 37.565 35.9413 36.9144 36.08C36.2637 36.2293 35.6237 36.304 34.9944 36.304ZM39.625 30.08L39.785 28.768C40.0837 28.768 40.3343 28.704 40.537 28.576C40.7397 28.448 40.937 28.2347 41.129 27.936C41.321 27.6373 41.529 27.2373 41.753 26.736C42.0623 26.0533 42.3663 25.536 42.665 25.184C42.9743 24.832 43.2783 24.592 43.577 24.464C43.8863 24.336 44.1903 24.272 44.489 24.272C44.8517 24.272 45.1877 24.368 45.497 24.56C45.8063 24.7413 46.0783 24.9867 46.313 25.296C46.5477 25.6053 46.729 25.9467 46.857 26.32C46.9957 26.6827 47.065 27.0453 47.065 27.408C47.065 28.048 46.953 28.56 46.729 28.944C46.505 29.3173 46.217 29.5893 45.865 29.76C45.5237 29.92 45.1663 30 44.793 30C44.4623 30 44.0357 29.936 43.513 29.808C43.001 29.68 42.3503 29.3547 41.561 28.832L42.185 27.824C42.7077 28.1547 43.177 28.384 43.593 28.512C44.0197 28.6293 44.3717 28.688 44.649 28.688C44.9583 28.688 45.2037 28.6453 45.385 28.56C45.5663 28.464 45.6997 28.3307 45.785 28.16C45.8703 27.9893 45.913 27.7973 45.913 27.584C45.913 27.2747 45.8383 26.9653 45.689 26.656C45.5397 26.3467 45.3477 26.0907 45.113 25.888C44.889 25.6853 44.649 25.584 44.393 25.584C44.201 25.584 44.0143 25.6373 43.833 25.744C43.6517 25.8507 43.465 26.048 43.273 26.336C43.081 26.624 42.8623 27.04 42.617 27.584C42.361 28.16 42.1157 28.6187 41.881 28.96C41.657 29.2907 41.4277 29.536 41.193 29.696C40.9583 29.856 40.713 29.9573 40.457 30C40.2117 30.0533 39.9343 30.08 39.625 30.08ZM49.5033 30L49.1833 18.576H50.4793L50.7993 30H49.5033ZM51.5015 33.712L51.0375 32.496C51.8162 32.24 52.4615 31.9467 52.9735 31.616C53.4962 31.2853 53.9068 30.9333 54.2055 30.56C54.5148 30.1867 54.7335 29.808 54.8615 29.424C54.9895 29.0293 55.0535 28.6507 55.0535 28.288C55.0535 27.7653 54.9362 27.2373 54.7015 26.704C54.4775 26.16 54.2268 25.648 53.9495 25.168L55.1175 24.576C55.3202 24.9493 55.4962 25.3173 55.6455 25.68C55.8055 26.0427 55.9442 26.384 56.0615 26.704C56.1895 27.024 56.2908 27.3173 56.3655 27.584C56.5148 28.0427 56.7068 28.3573 56.9415 28.528C57.1868 28.688 57.5175 28.768 57.9335 28.768C58.1575 28.768 58.3175 28.832 58.4135 28.96C58.5202 29.0773 58.5735 29.2213 58.5735 29.392C58.5735 29.5627 58.4988 29.7227 58.3495 29.872C58.2002 30.0107 58.0082 30.08 57.7735 30.08C57.3042 30.08 56.9202 30 56.6215 29.84C56.3335 29.6693 56.1148 29.4507 55.9655 29.184C55.8162 28.9067 55.7148 28.6187 55.6615 28.32L56.1735 28.608C56.1735 29.312 56.0135 29.952 55.6935 30.528C55.3842 31.1147 54.9842 31.6213 54.4935 32.048C54.0028 32.4853 53.4908 32.8427 52.9575 33.12C52.4242 33.3973 51.9388 33.5947 51.5015 33.712ZM57.7812 30.08L57.9413 28.768C58.3893 28.768 58.7413 28.7307 58.9973 28.656C59.2533 28.5707 59.4453 28.416 59.5733 28.192C59.7119 27.9573 59.8293 27.6213 59.9253 27.184C60.0213 26.7467 60.1386 26.176 60.2773 25.472L61.5253 25.712C61.4826 25.904 61.4346 26.1173 61.3813 26.352C61.3279 26.5867 61.2799 26.8213 61.2373 27.056C61.2053 27.28 61.1893 27.4773 61.1893 27.648C61.1893 27.8613 61.2373 28.0533 61.3333 28.224C61.4293 28.3947 61.6373 28.528 61.9573 28.624C62.2773 28.72 62.7679 28.768 63.4293 28.768C63.6533 28.768 63.8133 28.832 63.9093 28.96C64.0159 29.0773 64.0693 29.2213 64.0693 29.392C64.0693 29.5627 63.9946 29.7227 63.8453 29.872C63.6959 30.0107 63.5039 30.08 63.2693 30.08C62.5759 30.08 62.0319 30.0213 61.6373 29.904C61.2426 29.776 60.9546 29.5893 60.7733 29.344C60.5919 29.088 60.4693 28.7787 60.4053 28.416L60.8853 28.448C60.7146 28.7893 60.5279 29.0667 60.3253 29.28C60.1333 29.4933 59.9199 29.6587 59.6853 29.776C59.4506 29.8933 59.1786 29.9733 58.8693 30.016C58.5599 30.0587 58.1973 30.08 57.7812 30.08ZM60.5013 33.056C60.2773 33.056 60.0853 32.976 59.9253 32.816C59.7759 32.6667 59.7013 32.4853 59.7013 32.272C59.7013 32.0587 59.7759 31.872 59.9253 31.712C60.0853 31.552 60.2773 31.472 60.5013 31.472C60.7146 31.472 60.8959 31.552 61.0453 31.712C61.2053 31.872 61.2853 32.0587 61.2853 32.272C61.2853 32.4853 61.2053 32.6667 61.0453 32.816C60.8959 32.976 60.7146 33.056 60.5013 33.056ZM63.2656 30.08L63.4096 28.768C64.0176 28.768 64.4443 28.7093 64.6896 28.592C64.935 28.4747 65.0736 28.2667 65.1056 27.968C65.1483 27.6693 65.159 27.2533 65.1376 26.72L64.8336 18.576H66.1296L66.4496 26.576C66.471 27.1413 66.4496 27.6427 66.3856 28.08C66.3323 28.5173 66.1936 28.8853 65.9696 29.184C65.7563 29.4827 65.431 29.7067 64.9936 29.856C64.567 30.0053 63.991 30.08 63.2656 30.08ZM68.8939 30L68.5739 18.576H69.8699L70.1899 30H68.8939ZM72.1624 33.68L71.8744 32.368C72.5144 32.2827 73.101 32.16 73.6344 32C74.1784 31.8507 74.6424 31.632 75.0264 31.344C75.421 31.056 75.725 30.6773 75.9384 30.208C76.1517 29.7387 76.2584 29.152 76.2584 28.448C76.2584 28.1173 76.2264 27.8027 76.1624 27.504C76.0984 27.1947 76.0024 26.9227 75.8744 26.688C75.7464 26.4533 75.5917 26.2667 75.4104 26.128C75.2397 25.9893 75.0424 25.92 74.8184 25.92C74.573 25.92 74.349 26.016 74.1464 26.208C73.9544 26.3893 73.7997 26.624 73.6824 26.912C73.5757 27.2 73.5224 27.488 73.5224 27.776C73.5224 28 73.565 28.1973 73.6504 28.368C73.7464 28.528 73.901 28.6507 74.1144 28.736C74.3277 28.8213 74.605 28.864 74.9464 28.864C75.2557 28.864 75.565 28.832 75.8744 28.768C76.1944 28.704 76.4664 28.6187 76.6904 28.512L76.7544 29.632C76.4984 29.8133 76.1944 29.9413 75.8424 30.016C75.501 30.0907 75.1544 30.128 74.8024 30.128C74.397 30.128 74.0344 30.0853 73.7144 30C73.405 29.9147 73.1384 29.792 72.9144 29.632C72.701 29.4613 72.5357 29.248 72.4184 28.992C72.3117 28.736 72.2584 28.4373 72.2584 28.096C72.2584 27.6907 72.3224 27.2853 72.4504 26.88C72.5784 26.464 72.7597 26.0853 72.9944 25.744C73.229 25.4027 73.5117 25.1307 73.8424 24.928C74.173 24.7147 74.541 24.608 74.9464 24.608C75.373 24.608 75.7464 24.72 76.0664 24.944C76.3864 25.1573 76.653 25.4507 76.8664 25.824C77.0797 26.1973 77.2397 26.6187 77.3464 27.088C77.453 27.5573 77.5064 28.0427 77.5064 28.544C77.5064 29.536 77.3037 30.3893 76.8984 31.104C76.5037 31.8293 75.9064 32.4053 75.1064 32.832C74.317 33.2587 73.3357 33.5413 72.1624 33.68ZM89.1306 30.336L89.5466 29.024C90.7946 29.024 91.8666 28.992 92.7626 28.928C93.6693 28.864 94.4106 28.7627 94.9866 28.624C95.5733 28.4747 96.0053 28.2773 96.2826 28.032C96.5706 27.776 96.7146 27.4667 96.7146 27.104C96.7146 26.6987 96.64 26.2293 96.4906 25.696C96.3413 25.1627 96.1493 24.592 95.9146 23.984L97.1466 23.552C97.2853 23.8933 97.4133 24.2613 97.5306 24.656C97.6586 25.04 97.7653 25.424 97.8506 25.808C97.936 26.1813 97.9786 26.528 97.9786 26.848C97.9786 27.4773 97.8346 28.016 97.5466 28.464C97.2586 28.9013 96.7786 29.2587 96.1066 29.536C95.4346 29.8133 94.528 30.016 93.3866 30.144C92.256 30.272 90.8373 30.336 89.1306 30.336ZM89.1306 30.336C88.1813 30.336 87.344 30.272 86.6186 30.144C85.904 30.0267 85.3066 29.84 84.8266 29.584C84.3466 29.328 83.984 28.9973 83.7386 28.592C83.4933 28.176 83.3706 27.6747 83.3706 27.088C83.3706 26.8213 83.392 26.5493 83.4346 26.272C83.4773 25.984 83.5306 25.696 83.5946 25.408C83.6693 25.12 83.744 24.8427 83.8186 24.576L85.0186 24.88C84.976 25.04 84.928 25.232 84.8746 25.456C84.8213 25.6693 84.7733 25.888 84.7306 26.112C84.6986 26.336 84.6826 26.5387 84.6826 26.72C84.6826 27.2747 84.8213 27.7227 85.0986 28.064C85.3866 28.3947 85.8826 28.64 86.5866 28.8C87.2906 28.9493 88.2773 29.024 89.5466 29.024L89.8666 29.824L89.1306 30.336ZM91.8026 23.584C91.5786 23.584 91.3866 23.5093 91.2266 23.36C91.0773 23.2 91.0026 23.0133 91.0026 22.8C91.0026 22.5867 91.0773 22.4 91.2266 22.24C91.3866 22.08 91.5786 22 91.8026 22C92.016 22 92.1973 22.08 92.3466 22.24C92.5066 22.4 92.5866 22.5867 92.5866 22.8C92.5866 23.0133 92.5066 23.2 92.3466 23.36C92.1973 23.5093 92.016 23.584 91.8026 23.584ZM89.6106 23.584C89.3866 23.584 89.1946 23.5093 89.0346 23.36C88.8853 23.2 88.8106 23.0133 88.8106 22.8C88.8106 22.5867 88.8853 22.4 89.0346 22.24C89.1946 22.08 89.3866 22 89.6106 22C89.824 22 90.0053 22.08 90.1546 22.24C90.3146 22.4 90.3946 22.5867 90.3946 22.8C90.3946 23.0133 90.3146 23.2 90.1546 23.36C90.0053 23.5093 89.824 23.584 89.6106 23.584ZM100.253 30L99.9333 18.576H101.229L101.549 30H100.253ZM102.252 33.712L101.787 32.496C102.566 32.24 103.212 31.9467 103.724 31.616C104.246 31.2853 104.657 30.9333 104.956 30.56C105.265 30.1867 105.484 29.808 105.612 29.424C105.74 29.0293 105.804 28.6507 105.804 28.288C105.804 27.7653 105.686 27.2373 105.452 26.704C105.228 26.16 104.977 25.648 104.7 25.168L105.868 24.576C106.07 24.9493 106.246 25.3173 106.396 25.68C106.556 26.0427 106.694 26.384 106.812 26.704C106.94 27.024 107.041 27.3173 107.116 27.584C107.265 28.0427 107.457 28.3573 107.692 28.528C107.937 28.688 108.268 28.768 108.684 28.768C108.908 28.768 109.068 28.832 109.164 28.96C109.27 29.0773 109.324 29.2213 109.324 29.392C109.324 29.5627 109.249 29.7227 109.1 29.872C108.95 30.0107 108.758 30.08 108.524 30.08C108.054 30.08 107.67 30 107.372 29.84C107.084 29.6693 106.865 29.4507 106.716 29.184C106.566 28.9067 106.465 28.6187 106.411 28.32L106.924 28.608C106.924 29.312 106.764 29.952 106.444 30.528C106.134 31.1147 105.734 31.6213 105.244 32.048C104.753 32.4853 104.241 32.8427 103.708 33.12C103.174 33.3973 102.689 33.5947 102.252 33.712ZM108.531 30.08L108.691 28.768H109.923C110.809 28.768 111.465 28.72 111.891 28.624C112.318 28.528 112.595 28.4 112.723 28.24C112.862 28.08 112.931 27.9147 112.931 27.744C112.931 27.488 112.835 27.2053 112.643 26.896C112.451 26.5867 112.206 26.272 111.907 25.952C111.609 25.6213 111.289 25.296 110.947 24.976C110.617 24.656 110.302 24.3627 110.003 24.096C109.705 23.8293 109.459 23.6 109.267 23.408C109.075 23.2053 108.979 23.0613 108.979 22.976C108.979 22.816 108.99 22.6613 109.011 22.512C109.043 22.3627 109.081 22.224 109.123 22.096C109.177 21.968 109.241 21.8667 109.315 21.792C109.529 21.568 109.822 21.3333 110.195 21.088C110.569 20.832 111.001 20.576 111.491 20.32C111.982 20.0533 112.505 19.7867 113.059 19.52C113.614 19.2427 114.174 18.9653 114.739 18.688L115.283 19.872C114.771 20.128 114.259 20.384 113.747 20.64C113.235 20.8853 112.739 21.1307 112.259 21.376C111.779 21.6213 111.326 21.872 110.899 22.128C110.483 22.3733 110.105 22.624 109.763 22.88L109.859 22.336C110.339 22.7413 110.793 23.1307 111.219 23.504C111.646 23.8773 112.051 24.2613 112.435 24.656C112.819 25.04 113.177 25.456 113.507 25.904C113.838 26.352 114.147 26.848 114.435 27.392C114.659 27.808 114.921 28.112 115.219 28.304C115.518 28.496 115.811 28.624 116.099 28.688C116.398 28.7413 116.638 28.768 116.819 28.768C117.043 28.768 117.203 28.832 117.299 28.96C117.406 29.0773 117.459 29.2213 117.459 29.392C117.459 29.5627 117.385 29.7227 117.235 29.872C117.086 30.0107 116.894 30.08 116.659 30.08C116.371 30.08 116.03 30.0373 115.635 29.952C115.251 29.856 114.873 29.6747 114.499 29.408C114.126 29.1413 113.817 28.736 113.571 28.192L114.051 28.384C113.891 28.672 113.705 28.9227 113.491 29.136C113.289 29.3387 113.027 29.5147 112.707 29.664C112.387 29.8027 111.998 29.9093 111.539 29.984C111.081 30.048 110.521 30.08 109.859 30.08H108.531ZM116.656 30.08L116.816 28.768C117.158 28.768 117.435 28.7467 117.648 28.704C117.862 28.6507 118.038 28.528 118.176 28.336C118.326 28.1333 118.464 27.8187 118.592 27.392C118.72 26.9653 118.87 26.368 119.04 25.6L120.24 25.936C120.176 26.2027 120.102 26.5227 120.016 26.896C119.931 27.2693 119.888 27.6107 119.888 27.92C119.888 28.0907 119.931 28.24 120.016 28.368C120.102 28.496 120.246 28.5973 120.448 28.672C120.662 28.736 120.944 28.768 121.296 28.768C121.616 28.768 121.878 28.7413 122.08 28.688C122.283 28.6347 122.448 28.5067 122.576 28.304C122.715 28.1013 122.838 27.776 122.944 27.328C123.051 26.88 123.163 26.2667 123.28 25.488L124.496 25.712C124.464 25.904 124.427 26.1387 124.384 26.416C124.342 26.6933 124.299 26.9707 124.256 27.248C124.224 27.5147 124.208 27.7387 124.208 27.92C124.208 28.0693 124.24 28.2133 124.304 28.352C124.379 28.48 124.518 28.5813 124.72 28.656C124.934 28.7307 125.248 28.768 125.664 28.768C126.198 28.768 126.582 28.656 126.816 28.432C127.062 28.208 127.184 27.8667 127.184 27.408C127.184 27.1627 127.179 26.9067 127.168 26.64C127.158 26.3627 127.136 26.0587 127.104 25.728C127.083 25.3867 127.046 24.9973 126.992 24.56L128.16 24.48C128.224 25.344 128.294 26.0533 128.368 26.608C128.454 27.1627 128.571 27.6 128.72 27.92C128.88 28.2293 129.094 28.448 129.36 28.576C129.627 28.704 129.979 28.768 130.416 28.768C130.64 28.768 130.8 28.832 130.896 28.96C131.003 29.0773 131.056 29.2213 131.056 29.392C131.056 29.5627 130.982 29.7227 130.832 29.872C130.683 30.0107 130.491 30.08 130.256 30.08C129.894 30.08 129.568 30.032 129.28 29.936C129.003 29.8293 128.758 29.6907 128.544 29.52C128.342 29.3387 128.171 29.136 128.032 28.912C127.904 28.6773 127.814 28.432 127.76 28.176L128.048 28.272C127.931 28.752 127.744 29.1253 127.488 29.392C127.243 29.648 126.95 29.8293 126.608 29.936C126.267 30.032 125.904 30.08 125.52 30.08C125.051 30.08 124.667 30.0213 124.368 29.904C124.07 29.7867 123.835 29.6107 123.664 29.376C123.504 29.1307 123.398 28.8213 123.344 28.448H123.888C123.686 28.9067 123.472 29.2533 123.248 29.488C123.024 29.7227 122.747 29.8827 122.416 29.968C122.086 30.0427 121.648 30.08 121.104 30.08C120.838 30.08 120.55 30.0373 120.24 29.952C119.942 29.8667 119.68 29.7013 119.456 29.456C119.232 29.2 119.099 28.8213 119.056 28.32L119.536 28.224C119.355 28.768 119.131 29.1733 118.864 29.44C118.608 29.696 118.299 29.8667 117.936 29.952C117.574 30.0373 117.147 30.08 116.656 30.08ZM130.25 30.08L130.41 28.768C131.05 28.768 131.653 28.7093 132.218 28.592C132.783 28.464 133.301 28.2987 133.77 28.096C134.25 27.8827 134.661 27.6427 135.002 27.376C135.343 27.0987 135.605 26.816 135.786 26.528C135.978 26.2293 136.074 25.936 136.074 25.648C136.074 25.5093 136.026 25.3707 135.93 25.232C135.834 25.0827 135.669 24.96 135.434 24.864C135.21 24.768 134.906 24.72 134.522 24.72C134.287 24.72 134.026 24.752 133.738 24.816C133.45 24.88 133.173 24.9707 132.906 25.088C132.65 25.1947 132.437 25.3173 132.266 25.456C132.554 25.6907 132.821 25.92 133.066 26.144C133.322 26.368 133.583 26.6133 133.85 26.88C134.117 27.136 134.405 27.4293 134.714 27.76C134.959 27.9413 135.231 28.096 135.53 28.224C135.839 28.352 136.17 28.4587 136.522 28.544C136.885 28.6187 137.253 28.6773 137.626 28.72C137.999 28.752 138.373 28.768 138.746 28.768C138.97 28.768 139.13 28.832 139.226 28.96C139.333 29.0773 139.386 29.2213 139.386 29.392C139.386 29.5627 139.311 29.7227 139.162 29.872C139.013 30.0107 138.821 30.08 138.586 30.08C137.999 30.08 137.397 30.0267 136.778 29.92C136.17 29.8027 135.599 29.632 135.066 29.408C134.533 29.1733 134.079 28.88 133.706 28.528C133.525 28.2933 133.322 28.0587 133.098 27.824C132.874 27.5893 132.629 27.3547 132.362 27.12C132.106 26.8747 131.829 26.6453 131.53 26.432C131.466 26.3787 131.402 26.2827 131.338 26.144C131.274 26.0053 131.221 25.8613 131.178 25.712C131.135 25.5627 131.114 25.4507 131.114 25.376C131.114 25.216 131.215 25.024 131.418 24.8C131.621 24.576 131.893 24.3627 132.234 24.16C132.575 23.9467 132.965 23.7707 133.402 23.632C133.839 23.4933 134.293 23.424 134.762 23.424C135.37 23.424 135.861 23.5147 136.234 23.696C136.618 23.8773 136.895 24.112 137.066 24.4C137.247 24.6773 137.338 24.976 137.338 25.296C137.338 25.7653 137.221 26.2347 136.986 26.704C136.751 27.1627 136.415 27.5947 135.978 28C135.541 28.4053 135.029 28.768 134.442 29.088C133.855 29.3973 133.205 29.6427 132.49 29.824C131.786 29.9947 131.039 30.08 130.25 30.08ZM138.594 30.08L138.754 28.768C139.052 28.768 139.287 28.704 139.458 28.576C139.639 28.448 139.81 28.2347 139.97 27.936C140.14 27.6373 140.354 27.2373 140.61 26.736C140.866 26.224 141.122 25.808 141.378 25.488C141.644 25.1573 141.9 24.9013 142.146 24.72C142.402 24.528 142.642 24.3947 142.866 24.32C143.09 24.2453 143.298 24.208 143.49 24.208C143.842 24.208 144.156 24.288 144.434 24.448C144.711 24.5973 144.972 24.8587 145.218 25.232C145.463 25.5947 145.714 26.096 145.97 26.736C146.215 27.3227 146.434 27.7653 146.626 28.064C146.828 28.352 147.036 28.544 147.25 28.64C147.474 28.7253 147.724 28.768 148.002 28.768C148.226 28.768 148.386 28.832 148.482 28.96C148.588 29.0773 148.642 29.2213 148.642 29.392C148.642 29.5627 148.567 29.7227 148.418 29.872C148.268 30.0107 148.076 30.08 147.842 30.08C147.426 30.08 147.042 30.0107 146.69 29.872C146.348 29.7333 146.06 29.5147 145.826 29.216L146.05 28.88C145.932 29.2107 145.772 29.4827 145.57 29.696C145.378 29.8987 145.159 30.048 144.914 30.144C144.668 30.2507 144.407 30.304 144.13 30.304C143.778 30.304 143.415 30.2293 143.042 30.08C142.679 29.9307 142.327 29.7173 141.986 29.44C141.644 29.1627 141.346 28.8373 141.09 28.464C140.812 28.9547 140.546 29.3173 140.29 29.552C140.044 29.776 139.788 29.92 139.522 29.984C139.255 30.048 138.946 30.08 138.594 30.08ZM141.698 27.248C141.879 27.5467 142.071 27.808 142.274 28.032C142.487 28.256 142.7 28.4427 142.914 28.592C143.127 28.7307 143.335 28.8373 143.538 28.912C143.751 28.976 143.943 29.008 144.114 29.008C144.487 29.008 144.759 28.8747 144.93 28.608C145.111 28.3413 145.106 27.968 144.914 27.488C144.818 27.2427 144.716 27.0027 144.61 26.768C144.514 26.5333 144.407 26.32 144.29 26.128C144.172 25.9253 144.039 25.7707 143.89 25.664C143.74 25.5467 143.575 25.488 143.394 25.488C143.234 25.488 143.063 25.5413 142.882 25.648C142.711 25.7547 142.524 25.936 142.322 26.192C142.13 26.448 141.922 26.8 141.698 27.248ZM147.844 30.08L147.988 28.768C148.596 28.768 149.022 28.7093 149.268 28.592C149.513 28.4747 149.652 28.2667 149.684 27.968C149.726 27.6693 149.737 27.2533 149.716 26.72L149.412 18.576H150.708L151.028 26.576C151.049 27.1413 151.028 27.6427 150.964 28.08C150.91 28.5173 150.772 28.8853 150.548 29.184C150.334 29.4827 150.009 29.7067 149.572 29.856C149.145 30.0053 148.569 30.08 147.844 30.08ZM153.472 30L153.152 18.576H154.448L154.768 30H153.472ZM160.793 30.016C160.793 29.632 160.846 29.2053 160.953 28.736C161.059 28.2667 161.23 27.7493 161.465 27.184L162.617 27.632C162.446 28.08 162.318 28.4907 162.233 28.864C162.147 29.2373 162.105 29.584 162.105 29.904C162.105 30.4907 162.249 30.9653 162.537 31.328C162.835 31.7013 163.23 31.9733 163.721 32.144C164.222 32.3147 164.771 32.4 165.369 32.4C166.094 32.4 166.702 32.32 167.193 32.16C167.683 32.0107 168.073 31.8027 168.361 31.536C168.649 31.2693 168.851 30.9653 168.969 30.624C169.097 30.2933 169.161 29.9467 169.161 29.584C169.161 29.1147 169.123 28.672 169.049 28.256C168.985 27.84 168.894 27.4347 168.777 27.04C168.67 26.6347 168.553 26.224 168.425 25.808L169.72 25.456C169.838 25.8613 169.929 26.192 169.993 26.448C170.057 26.6933 170.105 26.8907 170.137 27.04C170.179 27.1893 170.217 27.3227 170.249 27.44C170.366 27.8347 170.521 28.128 170.713 28.32C170.905 28.5013 171.123 28.624 171.369 28.688C171.625 28.7413 171.886 28.768 172.153 28.768C172.377 28.768 172.537 28.832 172.633 28.96C172.739 29.0773 172.793 29.2213 172.793 29.392C172.793 29.5627 172.718 29.7227 172.569 29.872C172.419 30.0107 172.227 30.08 171.993 30.08C171.545 30.08 171.171 30.0053 170.873 29.856C170.574 29.696 170.339 29.4987 170.169 29.264C170.009 29.0293 169.902 28.784 169.849 28.528L170.505 29.344C170.473 29.888 170.366 30.416 170.185 30.928C170.014 31.4507 169.737 31.92 169.352 32.336C168.969 32.7627 168.446 33.0987 167.785 33.344C167.134 33.5893 166.313 33.712 165.321 33.712C164.713 33.712 164.137 33.6373 163.593 33.488C163.049 33.3387 162.563 33.1093 162.137 32.8C161.721 32.5013 161.39 32.1173 161.145 31.648C160.91 31.1893 160.793 30.6453 160.793 30.016ZM165.625 23.632C165.401 23.632 165.209 23.5573 165.049 23.408C164.899 23.248 164.825 23.0613 164.825 22.848C164.825 22.6347 164.899 22.448 165.049 22.288C165.209 22.128 165.401 22.048 165.625 22.048C165.838 22.048 166.019 22.128 166.169 22.288C166.329 22.448 166.409 22.6347 166.409 22.848C166.409 23.0613 166.329 23.248 166.169 23.408C166.019 23.5573 165.838 23.632 165.625 23.632ZM172 30.08L172.16 28.768C172.459 28.768 172.709 28.704 172.912 28.576C173.115 28.448 173.312 28.2347 173.504 27.936C173.696 27.6373 173.904 27.2373 174.128 26.736C174.437 26.0533 174.741 25.536 175.04 25.184C175.349 24.832 175.653 24.592 175.952 24.464C176.261 24.336 176.565 24.272 176.864 24.272C177.227 24.272 177.563 24.368 177.872 24.56C178.181 24.7413 178.453 24.9867 178.688 25.296C178.923 25.6053 179.104 25.9467 179.232 26.32C179.371 26.6827 179.44 27.0453 179.44 27.408C179.44 28.048 179.328 28.56 179.104 28.944C178.88 29.3173 178.592 29.5893 178.24 29.76C177.899 29.92 177.541 30 177.168 30C176.837 30 176.411 29.936 175.888 29.808C175.376 29.68 174.725 29.3547 173.936 28.832L174.56 27.824C175.083 28.1547 175.552 28.384 175.968 28.512C176.395 28.6293 176.747 28.688 177.024 28.688C177.333 28.688 177.579 28.6453 177.76 28.56C177.941 28.464 178.075 28.3307 178.16 28.16C178.245 27.9893 178.288 27.7973 178.288 27.584C178.288 27.2747 178.213 26.9653 178.064 26.656C177.915 26.3467 177.723 26.0907 177.488 25.888C177.264 25.6853 177.024 25.584 176.768 25.584C176.576 25.584 176.389 25.6373 176.208 25.744C176.027 25.8507 175.84 26.048 175.648 26.336C175.456 26.624 175.237 27.04 174.992 27.584C174.736 28.16 174.491 28.6187 174.256 28.96C174.032 29.2907 173.803 29.536 173.568 29.696C173.333 29.856 173.088 29.9573 172.832 30C172.587 30.0533 172.309 30.08 172 30.08ZM188.346 28.768C188.88 28.768 189.301 28.7147 189.61 28.608C189.93 28.5013 190.16 28.3467 190.298 28.144C190.448 27.9307 190.522 27.6853 190.522 27.408C190.522 27.1947 190.464 26.9387 190.346 26.64C190.24 26.3413 190.09 26.0107 189.898 25.648C189.706 25.2747 189.482 24.8853 189.226 24.48C188.981 24.064 188.714 23.6427 188.426 23.216L189.53 22.496C189.946 23.1253 190.309 23.7227 190.618 24.288C190.928 24.8427 191.189 25.3653 191.402 25.856C191.616 26.336 191.786 26.7893 191.914 27.216C192.064 27.6853 192.229 28.032 192.41 28.256C192.602 28.48 192.8 28.624 193.002 28.688C193.205 28.7413 193.392 28.768 193.562 28.768C193.786 28.768 193.952 28.832 194.058 28.96C194.165 29.0773 194.218 29.2213 194.218 29.392C194.218 29.5627 194.144 29.7227 193.994 29.872C193.845 30.0107 193.653 30.08 193.418 30.08C193.066 30.08 192.72 30.016 192.378 29.888C192.048 29.7493 191.76 29.5307 191.514 29.232C191.269 28.9227 191.098 28.512 191.002 28L191.642 27.488C191.642 27.9147 191.552 28.3307 191.37 28.736C191.189 29.1307 190.858 29.456 190.378 29.712C189.909 29.968 189.232 30.096 188.346 30.096C187.962 30.096 187.589 30.064 187.226 30C186.874 29.936 186.549 29.8453 186.25 29.728C185.952 29.6 185.69 29.4507 185.466 29.28L186.106 28.176C186.32 28.3147 186.618 28.448 187.002 28.576C187.386 28.704 187.834 28.768 188.346 28.768ZM193.422 30.08L193.582 28.768C194.211 28.768 194.702 28.7467 195.054 28.704C195.406 28.6507 195.657 28.528 195.806 28.336C195.955 28.1333 196.03 27.8187 196.03 27.392C196.03 27.1253 195.987 26.8107 195.902 26.448C195.817 26.0747 195.705 25.68 195.566 25.264C195.427 24.848 195.278 24.4373 195.118 24.032L196.414 23.552C196.553 23.8933 196.681 24.2827 196.798 24.72C196.926 25.1573 197.033 25.5893 197.118 26.016C197.203 26.4427 197.246 26.816 197.246 27.136C197.246 27.6693 197.171 28.1227 197.022 28.496C196.883 28.8693 196.659 29.1733 196.35 29.408C196.041 29.6427 195.641 29.8133 195.15 29.92C194.67 30.0267 194.094 30.08 193.422 30.08ZM196.382 33.104C196.158 33.104 195.966 33.024 195.806 32.864C195.657 32.7147 195.582 32.5333 195.582 32.32C195.582 32.1067 195.657 31.92 195.806 31.76C195.966 31.6 196.158 31.52 196.382 31.52C196.595 31.52 196.777 31.6 196.926 31.76C197.086 31.92 197.166 32.1067 197.166 32.32C197.166 32.5333 197.086 32.7147 196.926 32.864C196.777 33.024 196.595 33.104 196.382 33.104ZM194.19 33.104C193.966 33.104 193.774 33.024 193.614 32.864C193.465 32.7147 193.39 32.5333 193.39 32.32C193.39 32.1067 193.465 31.92 193.614 31.76C193.774 31.6 193.966 31.52 194.19 31.52C194.403 31.52 194.585 31.6 194.734 31.76C194.894 31.92 194.974 32.1067 194.974 32.32C194.974 32.5333 194.894 32.7147 194.734 32.864C194.585 33.024 194.403 33.104 194.19 33.104ZM198.267 33.712L197.803 32.496C198.582 32.24 199.227 31.9467 199.739 31.616C200.262 31.2853 200.672 30.9333 200.971 30.56C201.28 30.1867 201.499 29.808 201.627 29.424C201.755 29.0293 201.819 28.6507 201.819 28.288C201.819 27.7653 201.702 27.2373 201.467 26.704C201.243 26.16 200.992 25.648 200.715 25.168L201.883 24.576C202.086 24.9493 202.262 25.3173 202.411 25.68C202.571 26.0427 202.71 26.384 202.827 26.704C202.955 27.024 203.056 27.3173 203.131 27.584C203.28 28.0427 203.472 28.3573 203.707 28.528C203.952 28.688 204.283 28.768 204.699 28.768C204.923 28.768 205.083 28.832 205.179 28.96C205.286 29.0773 205.339 29.2213 205.339 29.392C205.339 29.5627 205.264 29.7227 205.115 29.872C204.966 30.0107 204.774 30.08 204.539 30.08C204.07 30.08 203.686 30 203.387 29.84C203.099 29.6693 202.88 29.4507 202.731 29.184C202.582 28.9067 202.48 28.6187 202.427 28.32L202.939 28.608C202.939 29.312 202.779 29.952 202.459 30.528C202.15 31.1147 201.75 31.6213 201.259 32.048C200.768 32.4853 200.256 32.8427 199.723 33.12C199.19 33.3973 198.704 33.5947 198.267 33.712ZM200.811 22.736C200.587 22.736 200.395 22.6613 200.235 22.512C200.086 22.352 200.011 22.1653 200.011 21.952C200.011 21.7387 200.086 21.552 200.235 21.392C200.395 21.232 200.587 21.152 200.811 21.152C201.024 21.152 201.206 21.232 201.355 21.392C201.515 21.552 201.595 21.7387 201.595 21.952C201.595 22.1653 201.515 22.352 201.355 22.512C201.206 22.6613 201.024 22.736 200.811 22.736ZM204.547 30.08L204.707 28.768C205.006 28.768 205.24 28.704 205.411 28.576C205.592 28.448 205.763 28.2347 205.923 27.936C206.094 27.6373 206.307 27.2373 206.563 26.736C206.819 26.224 207.075 25.808 207.331 25.488C207.598 25.1573 207.854 24.9013 208.099 24.72C208.355 24.528 208.595 24.3947 208.819 24.32C209.043 24.2453 209.251 24.208 209.443 24.208C209.795 24.208 210.11 24.288 210.387 24.448C210.664 24.5973 210.926 24.8587 211.171 25.232C211.416 25.5947 211.667 26.096 211.923 26.736C212.168 27.3227 212.387 27.7653 212.579 28.064C212.782 28.352 212.99 28.544 213.203 28.64C213.427 28.7253 213.678 28.768 213.955 28.768C214.179 28.768 214.339 28.832 214.435 28.96C214.542 29.0773 214.595 29.2213 214.595 29.392C214.595 29.5627 214.52 29.7227 214.371 29.872C214.222 30.0107 214.03 30.08 213.795 30.08C213.379 30.08 212.995 30.0107 212.643 29.872C212.302 29.7333 212.014 29.5147 211.779 29.216L212.003 28.88C211.886 29.2107 211.726 29.4827 211.523 29.696C211.331 29.8987 211.112 30.048 210.867 30.144C210.622 30.2507 210.36 30.304 210.083 30.304C209.731 30.304 209.368 30.2293 208.995 30.08C208.632 29.9307 208.28 29.7173 207.939 29.44C207.598 29.1627 207.299 28.8373 207.043 28.464C206.766 28.9547 206.499 29.3173 206.243 29.552C205.998 29.776 205.742 29.92 205.475 29.984C205.208 30.048 204.899 30.08 204.547 30.08ZM207.651 27.248C207.832 27.5467 208.024 27.808 208.227 28.032C208.44 28.256 208.654 28.4427 208.867 28.592C209.08 28.7307 209.288 28.8373 209.491 28.912C209.704 28.976 209.896 29.008 210.067 29.008C210.44 29.008 210.712 28.8747 210.883 28.608C211.064 28.3413 211.059 27.968 210.867 27.488C210.771 27.2427 210.67 27.0027 210.563 26.768C210.467 26.5333 210.36 26.32 210.243 26.128C210.126 25.9253 209.992 25.7707 209.843 25.664C209.694 25.5467 209.528 25.488 209.347 25.488C209.187 25.488 209.016 25.5413 208.835 25.648C208.664 25.7547 208.478 25.936 208.275 26.192C208.083 26.448 207.875 26.8 207.651 27.248ZM213.797 30.08L213.941 28.768C214.549 28.768 214.976 28.7093 215.221 28.592C215.466 28.4747 215.605 28.2667 215.637 27.968C215.68 27.6693 215.69 27.2533 215.669 26.72L215.365 18.576H216.661L216.981 26.576C217.002 27.1413 216.981 27.6427 216.917 28.08C216.864 28.5173 216.725 28.8853 216.501 29.184C216.288 29.4827 215.962 29.7067 215.525 29.856C215.098 30.0053 214.522 30.08 213.797 30.08ZM219.425 30L219.105 18.576H220.401L220.721 30H219.425Z" fill="#534089"/>
</svg>
