<svg width="250" height="48" viewBox="0 0 250 48" fill="none" xmlns="http://www.w3.org/2000/svg">
<rect x="0.5" y="0.5" width="249" height="47" rx="19.5" stroke="#534089"/>
<path d="M46.3307 30.08C45.7547 30.08 45.2427 30 44.7947 29.84C44.3574 29.6693 44.0054 29.3867 43.7387 28.992C43.4827 28.5867 43.3387 28.0267 43.3067 27.312L43.0507 21.744H44.3467L44.6027 27.024C44.6347 27.5253 44.7254 27.904 44.8747 28.16C45.024 28.4053 45.232 28.5707 45.4987 28.656C45.776 28.7307 46.1067 28.768 46.4907 28.768C46.7147 28.768 46.8747 28.832 46.9707 28.96C47.0774 29.0773 47.1307 29.2213 47.1307 29.392C47.1307 29.5627 47.056 29.7227 46.9067 29.872C46.7574 30.0107 46.5654 30.08 46.3307 30.08ZM43.9147 28.32C43.3067 28.512 42.7147 28.608 42.1387 28.608C41.5627 28.608 41.04 28.5227 40.5707 28.352C40.1014 28.1813 39.728 27.936 39.4507 27.616C39.1734 27.2853 39.0347 26.8907 39.0347 26.432C39.0347 25.984 39.1467 25.5627 39.3707 25.168C39.6054 24.7733 39.92 24.4213 40.3147 24.112C40.72 23.8027 41.184 23.5467 41.7067 23.344C42.24 23.1307 42.8054 22.9867 43.4027 22.912L43.6267 24.256C43.0934 24.2773 42.6187 24.352 42.2027 24.48C41.7974 24.5973 41.4507 24.752 41.1627 24.944C40.8854 25.136 40.672 25.344 40.5227 25.568C40.3734 25.792 40.2987 26.0107 40.2987 26.224C40.2987 26.4587 40.384 26.6507 40.5547 26.8C40.7254 26.9493 40.944 27.0667 41.2107 27.152C41.4774 27.2267 41.7707 27.2747 42.0907 27.296C42.4107 27.3067 42.72 27.296 43.0187 27.264C43.3174 27.2213 43.5734 27.1627 43.7867 27.088L43.9147 28.32ZM43.5787 19.904C43.3547 19.904 43.1627 19.8293 43.0027 19.68C42.8534 19.52 42.7787 19.3333 42.7787 19.12C42.7787 18.9067 42.8534 18.72 43.0027 18.56C43.1627 18.4 43.3547 18.32 43.5787 18.32C43.792 18.32 43.9734 18.4 44.1227 18.56C44.2827 18.72 44.3627 18.9067 44.3627 19.12C44.3627 19.3333 44.2827 19.52 44.1227 19.68C43.9734 19.8293 43.792 19.904 43.5787 19.904ZM41.3867 19.904C41.1627 19.904 40.9707 19.8293 40.8107 19.68C40.6614 19.52 40.5867 19.3333 40.5867 19.12C40.5867 18.9067 40.6614 18.72 40.8107 18.56C40.9707 18.4 41.1627 18.32 41.3867 18.32C41.6 18.32 41.7814 18.4 41.9307 18.56C42.0907 18.72 42.1707 18.9067 42.1707 19.12C42.1707 19.3333 42.0907 19.52 41.9307 19.68C41.7814 19.8293 41.6 19.904 41.3867 19.904ZM46.3359 30.08L46.4959 28.768C47.0293 28.768 47.4453 28.7307 47.7439 28.656C48.0426 28.5707 48.2666 28.416 48.4159 28.192C48.5759 27.9573 48.7039 27.6213 48.7999 27.184C48.8959 26.7467 49.0133 26.176 49.1519 25.472L50.3999 25.712C50.3573 25.904 50.3093 26.1173 50.2559 26.352C50.2026 26.5867 50.1546 26.8213 50.1119 27.056C50.0799 27.28 50.0639 27.4773 50.0639 27.648C50.0639 27.808 50.0746 27.9573 50.0959 28.096C50.1173 28.2347 50.1973 28.352 50.3359 28.448C50.4746 28.544 50.7093 28.624 51.0399 28.688C51.3706 28.7413 51.8453 28.768 52.4639 28.768C52.6879 28.768 52.8479 28.832 52.9439 28.96C53.0506 29.0773 53.1039 29.2213 53.1039 29.392C53.1039 29.5627 53.0293 29.7227 52.8799 29.872C52.7306 30.0107 52.5386 30.08 52.3039 30.08C51.6533 30.08 51.1359 30.048 50.7519 29.984C50.3679 29.9093 50.0746 29.8027 49.8719 29.664C49.6799 29.5253 49.5413 29.3547 49.4559 29.152C49.3813 28.9387 49.3226 28.6933 49.2799 28.416L49.7599 28.448C49.5893 28.7893 49.4026 29.0667 49.1999 29.28C49.0079 29.4933 48.7839 29.6587 48.5279 29.776C48.2719 29.8933 47.9626 29.9733 47.5999 30.016C47.2479 30.0587 46.8266 30.08 46.3359 30.08ZM50.3679 33.104C50.1439 33.104 49.9519 33.024 49.7919 32.864C49.6426 32.7147 49.5679 32.5333 49.5679 32.32C49.5679 32.1067 49.6426 31.92 49.7919 31.76C49.9519 31.6 50.1439 31.52 50.3679 31.52C50.5813 31.52 50.7626 31.6 50.9119 31.76C51.0719 31.92 51.1519 32.1067 51.1519 32.32C51.1519 32.5333 51.0719 32.7147 50.9119 32.864C50.7626 33.024 50.5813 33.104 50.3679 33.104ZM48.1759 33.104C47.9519 33.104 47.7599 33.024 47.5999 32.864C47.4506 32.7147 47.3759 32.5333 47.3759 32.32C47.3759 32.1067 47.4506 31.92 47.5999 31.76C47.7599 31.6 47.9519 31.52 48.1759 31.52C48.3893 31.52 48.5706 31.6 48.7199 31.76C48.8799 31.92 48.9599 32.1067 48.9599 32.32C48.9599 32.5333 48.8799 32.7147 48.7199 32.864C48.5706 33.024 48.3893 33.104 48.1759 33.104ZM52.3047 30.08L52.4647 28.768C52.7634 28.768 52.998 28.704 53.1687 28.576C53.35 28.448 53.5207 28.2347 53.6807 27.936C53.8514 27.6373 54.0647 27.2373 54.3207 26.736C54.5767 26.224 54.8327 25.808 55.0887 25.488C55.3554 25.1573 55.6114 24.9013 55.8567 24.72C56.1127 24.528 56.3527 24.3947 56.5767 24.32C56.8007 24.2453 57.0087 24.208 57.2007 24.208C57.5527 24.208 57.8674 24.288 58.1447 24.448C58.422 24.5973 58.6834 24.8587 58.9287 25.232C59.174 25.5947 59.4247 26.096 59.6807 26.736C59.926 27.3227 60.1447 27.7653 60.3367 28.064C60.5394 28.352 60.7474 28.544 60.9607 28.64C61.1847 28.7253 61.4354 28.768 61.7127 28.768C61.9367 28.768 62.0967 28.832 62.1927 28.96C62.2994 29.0773 62.3527 29.2213 62.3527 29.392C62.3527 29.5627 62.278 29.7227 62.1287 29.872C61.9794 30.0107 61.7874 30.08 61.5527 30.08C61.1367 30.08 60.7527 30.0107 60.4007 29.872C60.0594 29.7333 59.7714 29.5147 59.5367 29.216L59.7607 28.88C59.6434 29.2107 59.4834 29.4827 59.2807 29.696C59.0887 29.8987 58.87 30.048 58.6247 30.144C58.3794 30.2507 58.118 30.304 57.8407 30.304C57.4887 30.304 57.126 30.2293 56.7527 30.08C56.39 29.9307 56.038 29.7173 55.6967 29.44C55.3554 29.1627 55.0567 28.8373 54.8007 28.464C54.5234 28.9547 54.2567 29.3173 54.0007 29.552C53.7554 29.776 53.4994 29.92 53.2327 29.984C52.966 30.048 52.6567 30.08 52.3047 30.08ZM55.4087 27.248C55.59 27.5467 55.782 27.808 55.9847 28.032C56.198 28.256 56.4114 28.4427 56.6247 28.592C56.838 28.7307 57.046 28.8373 57.2487 28.912C57.462 28.976 57.654 29.008 57.8247 29.008C58.198 29.008 58.47 28.8747 58.6407 28.608C58.822 28.3413 58.8167 27.968 58.6247 27.488C58.5287 27.2427 58.4274 27.0027 58.3207 26.768C58.2247 26.5333 58.118 26.32 58.0007 26.128C57.8834 25.9253 57.75 25.7707 57.6007 25.664C57.4514 25.5467 57.286 25.488 57.1047 25.488C56.9447 25.488 56.774 25.5413 56.5927 25.648C56.422 25.7547 56.2354 25.936 56.0327 26.192C55.8407 26.448 55.6327 26.8 55.4087 27.248ZM61.5547 30.08L61.7147 28.768C62.344 28.768 62.8347 28.7467 63.1867 28.704C63.5387 28.6507 63.7894 28.528 63.9387 28.336C64.088 28.1333 64.1627 27.8187 64.1627 27.392C64.1627 27.1253 64.12 26.8107 64.0347 26.448C63.9494 26.0747 63.8374 25.68 63.6987 25.264C63.56 24.848 63.4107 24.4373 63.2507 24.032L64.5467 23.552C64.6854 23.8933 64.8134 24.2827 64.9307 24.72C65.0587 25.1573 65.1654 25.5893 65.2507 26.016C65.336 26.4427 65.3787 26.816 65.3787 27.136C65.3787 27.6693 65.304 28.1227 65.1547 28.496C65.016 28.8693 64.792 29.1733 64.4827 29.408C64.1734 29.6427 63.7734 29.8133 63.2827 29.92C62.8027 30.0267 62.2267 30.08 61.5547 30.08ZM64.5147 33.104C64.2907 33.104 64.0987 33.024 63.9387 32.864C63.7894 32.7147 63.7147 32.5333 63.7147 32.32C63.7147 32.1067 63.7894 31.92 63.9387 31.76C64.0987 31.6 64.2907 31.52 64.5147 31.52C64.728 31.52 64.9094 31.6 65.0587 31.76C65.2187 31.92 65.2987 32.1067 65.2987 32.32C65.2987 32.5333 65.2187 32.7147 65.0587 32.864C64.9094 33.024 64.728 33.104 64.5147 33.104ZM62.3227 33.104C62.0987 33.104 61.9067 33.024 61.7467 32.864C61.5974 32.7147 61.5227 32.5333 61.5227 32.32C61.5227 32.1067 61.5974 31.92 61.7467 31.76C61.9067 31.6 62.0987 31.52 62.3227 31.52C62.536 31.52 62.7174 31.6 62.8667 31.76C63.0267 31.92 63.1067 32.1067 63.1067 32.32C63.1067 32.5333 63.0267 32.7147 62.8667 32.864C62.7174 33.024 62.536 33.104 62.3227 33.104ZM66.8959 29.28L67.5359 28.176C67.7493 28.3147 68.0479 28.448 68.4319 28.576C68.8159 28.704 69.2639 28.768 69.7759 28.768C70.3093 28.768 70.7306 28.7147 71.0399 28.608C71.3599 28.5013 71.5893 28.3467 71.7279 28.144C71.8773 27.9307 71.9519 27.6853 71.9519 27.408C71.9519 27.1947 71.9039 26.9333 71.8079 26.624C71.7226 26.304 71.5306 25.8773 71.2319 25.344C70.9333 24.8 70.4746 24.0907 69.8559 23.216L70.9599 22.496C71.5253 23.2747 71.9733 23.9787 72.3039 24.608C72.6453 25.2373 72.8853 25.792 73.0239 26.272C73.1733 26.7413 73.2479 27.1467 73.2479 27.488C73.2479 27.9147 73.1413 28.3307 72.9279 28.736C72.7146 29.1307 72.3573 29.456 71.8559 29.712C71.3546 29.968 70.6613 30.096 69.7759 30.096C69.3919 30.096 69.0186 30.064 68.6559 30C68.3039 29.936 67.9786 29.8453 67.6799 29.728C67.3813 29.6 67.1199 29.4507 66.8959 29.28ZM78.6169 30.08C77.7636 30.08 77.1076 29.984 76.6489 29.792C76.2009 29.6 75.8916 29.3013 75.7209 28.896C75.5503 28.4907 75.4543 27.968 75.4329 27.328L75.1129 18.576H76.4249L76.7449 26.816C76.7663 27.3387 76.8143 27.744 76.8889 28.032C76.9743 28.3093 77.1556 28.5013 77.4329 28.608C77.7209 28.7147 78.1689 28.768 78.7769 28.768C79.0009 28.768 79.1609 28.832 79.2569 28.96C79.3636 29.0773 79.4169 29.2213 79.4169 29.392C79.4169 29.5627 79.3423 29.7227 79.1929 29.872C79.0436 30.0107 78.8516 30.08 78.6169 30.08ZM78.6172 30.08L78.7772 28.768H80.2812C80.9105 28.768 81.4065 28.736 81.7692 28.672C82.1425 28.5973 82.4145 28.5067 82.5852 28.4C82.7665 28.2827 82.8839 28.16 82.9372 28.032C83.0012 27.8933 83.0332 27.7547 83.0332 27.616C83.0332 27.3707 82.9372 27.0667 82.7452 26.704C82.5639 26.3413 82.1852 25.872 81.6092 25.296C81.3105 24.9973 81.0119 24.7253 80.7132 24.48C80.4145 24.224 80.1372 24 79.8812 23.808C79.6359 23.6053 79.4385 23.4347 79.2892 23.296C79.1399 23.1573 79.0652 23.0507 79.0652 22.976C79.0652 22.816 79.0759 22.6613 79.0972 22.512C79.1292 22.3627 79.1665 22.224 79.2092 22.096C79.2625 21.968 79.3265 21.8667 79.4012 21.792C79.6145 21.568 79.8865 21.344 80.2172 21.12C80.5585 20.896 80.9532 20.6613 81.4012 20.416C81.8599 20.1707 82.3719 19.9093 82.9372 19.632C83.5132 19.344 84.1425 19.0293 84.8252 18.688L85.3692 19.872C84.5159 20.2773 83.8012 20.624 83.2252 20.912C82.6599 21.1893 82.1799 21.44 81.7852 21.664C81.3905 21.8773 81.0439 22.08 80.7452 22.272C80.4465 22.464 80.1425 22.6773 79.8332 22.912L80.0732 22.304C80.7452 22.8373 81.3372 23.3387 81.8492 23.808C82.3719 24.2773 82.8092 24.7307 83.1612 25.168C83.5132 25.5947 83.7799 26.016 83.9612 26.432C84.1425 26.848 84.2332 27.2693 84.2332 27.696C84.2332 27.9307 84.1905 28.1867 84.1052 28.464C84.0199 28.7413 83.8385 29.0027 83.5612 29.248C83.2839 29.4933 82.8679 29.696 82.3132 29.856C81.7585 30.0053 81.0119 30.08 80.0732 30.08H78.6172ZM91.4989 21.424C91.4989 21.1893 91.4829 20.9067 91.4509 20.576C91.4189 20.2453 91.3816 19.9147 91.3389 19.584C91.2963 19.2533 91.2536 18.9707 91.2109 18.736L92.5869 18.576C92.6189 18.7893 92.6509 19.072 92.6829 19.424C92.7256 19.7653 92.7576 20.1067 92.7789 20.448C92.8003 20.7893 92.8109 21.072 92.8109 21.296C92.8109 21.808 92.7736 22.3093 92.6989 22.8C92.6349 23.28 92.5283 23.7547 92.3789 24.224C92.2296 24.6827 92.0323 25.1307 91.7869 25.568L91.5949 25.92C91.2963 26.4213 90.9283 26.9067 90.4909 27.376C90.0536 27.8347 89.5416 28.272 88.9549 28.688H90.9709C91.3336 28.688 91.6109 28.6453 91.8029 28.56C91.9949 28.464 92.1229 28.3413 92.1869 28.192C92.2616 28.0427 92.2989 27.8827 92.2989 27.712C92.2989 27.424 92.1229 27.0667 91.7709 26.64C91.4296 26.2027 90.9549 25.7227 90.3469 25.2C89.7389 24.6667 89.0509 24.1067 88.2829 23.52C87.5149 22.9333 86.7043 22.336 85.8509 21.728L86.6029 20.672C87.5843 21.3973 88.4483 22.0533 89.1949 22.64C89.9523 23.2267 90.5976 23.7653 91.1309 24.256C91.6749 24.736 92.1176 25.184 92.4589 25.6C92.8109 26.0053 93.0669 26.3947 93.2269 26.768C93.3976 27.1307 93.4829 27.488 93.4829 27.84C93.4829 28.0747 93.4403 28.32 93.3549 28.576C93.2803 28.8213 93.1416 29.056 92.9389 29.28C92.7469 29.4933 92.4696 29.6693 92.1069 29.808C91.7549 29.936 91.2963 30 90.7309 30H87.0509V28.704C88.1496 27.9147 89.0189 27.1467 89.6589 26.4C90.3096 25.6533 90.7789 24.8747 91.0669 24.064C91.3549 23.2533 91.4989 22.3733 91.4989 21.424ZM85.6269 19.824L85.4349 18.96C85.7123 18.896 85.9363 18.8427 86.1069 18.8C86.2776 18.7573 86.4696 18.7093 86.6829 18.656L86.6029 18.992C86.3256 18.9067 86.0589 18.7253 85.8029 18.448C85.5576 18.1707 85.4349 17.856 85.4349 17.504C85.4349 17.184 85.5096 16.9173 85.6589 16.704C85.8189 16.48 86.0216 16.3147 86.2669 16.208C86.5229 16.1013 86.7949 16.048 87.0829 16.048C87.2003 16.048 87.3229 16.0587 87.4509 16.08C87.5896 16.1013 87.7176 16.1333 87.8349 16.176L87.7069 16.976C87.6003 16.9547 87.4989 16.9333 87.4029 16.912C87.3069 16.8907 87.2003 16.88 87.0829 16.88C86.8376 16.88 86.6456 16.9333 86.5069 17.04C86.3683 17.136 86.2989 17.2747 86.2989 17.456C86.2989 17.68 86.3683 17.872 86.5069 18.032C86.6563 18.192 86.8216 18.32 87.0029 18.416C87.1949 18.5013 87.3496 18.544 87.4669 18.544L86.8109 18.608C87.0989 18.5333 87.3656 18.4587 87.6109 18.384C87.8669 18.2987 88.0963 18.2187 88.2989 18.144L88.5549 18.96C88.2989 19.056 87.9949 19.1573 87.6429 19.264C87.3016 19.3707 86.9549 19.472 86.6029 19.568C86.2509 19.664 85.9256 19.7493 85.6269 19.824ZM95.9954 30L95.6754 18.576H96.9714L97.2914 30H95.9954ZM109.076 30.336L109.492 29.024C110.74 29.024 111.812 28.992 112.708 28.928C113.615 28.864 114.356 28.7627 114.932 28.624C115.519 28.4747 115.951 28.2773 116.228 28.032C116.516 27.776 116.66 27.4667 116.66 27.104C116.66 26.6987 116.585 26.2293 116.436 25.696C116.287 25.1627 116.095 24.592 115.86 23.984L117.092 23.552C117.231 23.8933 117.359 24.2613 117.476 24.656C117.604 25.04 117.711 25.424 117.796 25.808C117.881 26.1813 117.924 26.528 117.924 26.848C117.924 27.4773 117.78 28.016 117.492 28.464C117.204 28.9013 116.724 29.2587 116.052 29.536C115.38 29.8133 114.473 30.016 113.332 30.144C112.201 30.272 110.783 30.336 109.076 30.336ZM109.076 30.336C108.127 30.336 107.289 30.272 106.564 30.144C105.849 30.0267 105.252 29.84 104.772 29.584C104.292 29.328 103.929 28.9973 103.684 28.592C103.439 28.176 103.316 27.6747 103.316 27.088C103.316 26.8213 103.337 26.5493 103.38 26.272C103.423 25.984 103.476 25.696 103.54 25.408C103.615 25.12 103.689 24.8427 103.764 24.576L104.964 24.88C104.921 25.04 104.873 25.232 104.82 25.456C104.767 25.6693 104.719 25.888 104.676 26.112C104.644 26.336 104.628 26.5387 104.628 26.72C104.628 27.2747 104.767 27.7227 105.044 28.064C105.332 28.3947 105.828 28.64 106.532 28.8C107.236 28.9493 108.223 29.024 109.492 29.024L109.812 29.824L109.076 30.336ZM111.748 23.584C111.524 23.584 111.332 23.5093 111.172 23.36C111.023 23.2 110.948 23.0133 110.948 22.8C110.948 22.5867 111.023 22.4 111.172 22.24C111.332 22.08 111.524 22 111.748 22C111.961 22 112.143 22.08 112.292 22.24C112.452 22.4 112.532 22.5867 112.532 22.8C112.532 23.0133 112.452 23.2 112.292 23.36C112.143 23.5093 111.961 23.584 111.748 23.584ZM109.556 23.584C109.332 23.584 109.14 23.5093 108.98 23.36C108.831 23.2 108.756 23.0133 108.756 22.8C108.756 22.5867 108.831 22.4 108.98 22.24C109.14 22.08 109.332 22 109.556 22C109.769 22 109.951 22.08 110.1 22.24C110.26 22.4 110.34 22.5867 110.34 22.8C110.34 23.0133 110.26 23.2 110.1 23.36C109.951 23.5093 109.769 23.584 109.556 23.584ZM120.199 30L119.879 18.576H121.175L121.495 30H120.199ZM122.197 33.712L121.733 32.496C122.511 32.24 123.157 31.9467 123.669 31.616C124.191 31.2853 124.602 30.9333 124.901 30.56C125.21 30.1867 125.429 29.808 125.557 29.424C125.685 29.0293 125.749 28.6507 125.749 28.288C125.749 27.7653 125.631 27.2373 125.397 26.704C125.173 26.16 124.922 25.648 124.645 25.168L125.813 24.576C126.015 24.9493 126.191 25.3173 126.341 25.68C126.501 26.0427 126.639 26.384 126.757 26.704C126.885 27.024 126.986 27.3173 127.061 27.584C127.21 28.0427 127.402 28.3573 127.637 28.528C127.882 28.688 128.213 28.768 128.629 28.768C128.853 28.768 129.013 28.832 129.109 28.96C129.215 29.0773 129.269 29.2213 129.269 29.392C129.269 29.5627 129.194 29.7227 129.045 29.872C128.895 30.0107 128.703 30.08 128.469 30.08C127.999 30.08 127.615 30 127.317 29.84C127.029 29.6693 126.81 29.4507 126.661 29.184C126.511 28.9067 126.41 28.6187 126.357 28.32L126.869 28.608C126.869 29.312 126.709 29.952 126.389 30.528C126.079 31.1147 125.679 31.6213 125.189 32.048C124.698 32.4853 124.186 32.8427 123.653 33.12C123.119 33.3973 122.634 33.5947 122.197 33.712ZM124.741 22.736C124.517 22.736 124.325 22.6613 124.165 22.512C124.015 22.352 123.941 22.1653 123.941 21.952C123.941 21.7387 124.015 21.552 124.165 21.392C124.325 21.232 124.517 21.152 124.741 21.152C124.954 21.152 125.135 21.232 125.285 21.392C125.445 21.552 125.525 21.7387 125.525 21.952C125.525 22.1653 125.445 22.352 125.285 22.512C125.135 22.6613 124.954 22.736 124.741 22.736ZM138.669 30.08C138.221 30.08 137.81 30.0533 137.437 30C137.063 29.936 136.727 29.824 136.429 29.664C136.13 29.504 135.879 29.2747 135.677 28.976C135.474 28.6667 135.319 28.2613 135.213 27.76L136.157 27.2C136.295 27.6267 136.466 27.952 136.669 28.176C136.871 28.4 137.143 28.5547 137.485 28.64C137.837 28.7253 138.285 28.768 138.829 28.768C139.053 28.768 139.213 28.832 139.309 28.96C139.415 29.0773 139.469 29.2213 139.469 29.392C139.469 29.5627 139.394 29.7227 139.245 29.872C139.095 30.0107 138.903 30.08 138.669 30.08ZM128.477 30.08L128.621 28.768C129.175 28.768 129.719 28.7253 130.253 28.64C130.786 28.5547 131.309 28.432 131.821 28.272C132.333 28.112 132.823 27.92 133.293 27.696C133.773 27.4613 134.226 27.1947 134.653 26.896C134.375 26.6507 134.055 26.4373 133.693 26.256C133.33 26.0747 132.93 25.936 132.493 25.84C132.066 25.7333 131.613 25.68 131.133 25.68C130.962 25.68 130.802 25.6853 130.653 25.696C130.503 25.7067 130.354 25.728 130.205 25.76C130.055 25.7813 129.885 25.8133 129.693 25.856L129.437 24.64C129.725 24.5547 130.013 24.4907 130.301 24.448C130.589 24.3947 130.866 24.368 131.133 24.368C131.687 24.368 132.189 24.4373 132.637 24.576C133.085 24.704 133.49 24.864 133.853 25.056C134.226 25.248 134.573 25.44 134.893 25.632C135.223 25.824 135.543 25.9893 135.853 26.128C136.162 26.256 136.482 26.32 136.813 26.32H137.149L137.261 27.472C136.802 27.472 136.381 27.536 135.997 27.664C135.613 27.792 135.234 27.9573 134.861 28.16C134.498 28.352 134.114 28.56 133.709 28.784C133.303 28.9973 132.855 29.2053 132.365 29.408C131.874 29.6 131.309 29.76 130.669 29.888C130.039 30.016 129.309 30.08 128.477 30.08ZM132.653 32.976C132.429 32.976 132.237 32.896 132.077 32.736C131.927 32.5867 131.853 32.4053 131.853 32.192C131.853 31.9787 131.927 31.792 132.077 31.632C132.237 31.472 132.429 31.392 132.653 31.392C132.866 31.392 133.047 31.472 133.197 31.632C133.357 31.792 133.437 31.9787 133.437 32.192C133.437 32.4053 133.357 32.5867 133.197 32.736C133.047 32.896 132.866 32.976 132.653 32.976ZM138.664 30.08L138.824 28.768C139.272 28.768 139.624 28.7307 139.88 28.656C140.136 28.5707 140.328 28.416 140.456 28.192C140.595 27.9573 140.712 27.6213 140.808 27.184C140.904 26.7467 141.021 26.176 141.16 25.472L142.408 25.712C142.365 25.904 142.317 26.1173 142.264 26.352C142.211 26.5867 142.163 26.8213 142.12 27.056C142.088 27.28 142.072 27.4773 142.072 27.648C142.072 27.8613 142.12 28.0533 142.216 28.224C142.312 28.3947 142.52 28.528 142.84 28.624C143.16 28.72 143.651 28.768 144.312 28.768C144.536 28.768 144.696 28.832 144.792 28.96C144.899 29.0773 144.952 29.2213 144.952 29.392C144.952 29.5627 144.877 29.7227 144.728 29.872C144.579 30.0107 144.387 30.08 144.152 30.08C143.459 30.08 142.915 30.0213 142.52 29.904C142.125 29.776 141.837 29.5893 141.656 29.344C141.475 29.088 141.352 28.7787 141.288 28.416L141.768 28.448C141.597 28.7893 141.411 29.0667 141.208 29.28C141.016 29.4933 140.803 29.6587 140.568 29.776C140.333 29.8933 140.061 29.9733 139.752 30.016C139.443 30.0587 139.08 30.08 138.664 30.08ZM141.16 23.824C140.936 23.824 140.744 23.7493 140.584 23.6C140.435 23.44 140.36 23.2533 140.36 23.04C140.36 22.8267 140.435 22.64 140.584 22.48C140.744 22.32 140.936 22.24 141.16 22.24C141.373 22.24 141.555 22.32 141.704 22.48C141.864 22.64 141.944 22.8267 141.944 23.04C141.944 23.2533 141.864 23.44 141.704 23.6C141.555 23.7493 141.373 23.824 141.16 23.824ZM144.148 30.08L144.308 28.768C144.607 28.768 144.858 28.704 145.06 28.576C145.263 28.448 145.46 28.2347 145.652 27.936C145.844 27.6373 146.052 27.2373 146.276 26.736C146.586 26.0533 146.89 25.536 147.188 25.184C147.498 24.832 147.802 24.592 148.1 24.464C148.41 24.336 148.714 24.272 149.012 24.272C149.375 24.272 149.711 24.368 150.02 24.56C150.33 24.7413 150.602 24.9867 150.836 25.296C151.071 25.6053 151.252 25.9467 151.38 26.32C151.519 26.6827 151.588 27.0453 151.588 27.408C151.588 28.048 151.476 28.56 151.252 28.944C151.028 29.3173 150.74 29.5893 150.388 29.76C150.047 29.92 149.69 30 149.316 30C148.986 30 148.559 29.936 148.036 29.808C147.524 29.68 146.874 29.3547 146.084 28.832L146.708 27.824C147.231 28.1547 147.7 28.384 148.116 28.512C148.543 28.6293 148.895 28.688 149.172 28.688C149.482 28.688 149.727 28.6453 149.908 28.56C150.09 28.464 150.223 28.3307 150.308 28.16C150.394 27.9893 150.436 27.7973 150.436 27.584C150.436 27.2747 150.362 26.9653 150.212 26.656C150.063 26.3467 149.871 26.0907 149.636 25.888C149.412 25.6853 149.172 25.584 148.916 25.584C148.724 25.584 148.538 25.6373 148.356 25.744C148.175 25.8507 147.988 26.048 147.796 26.336C147.604 26.624 147.386 27.04 147.14 27.584C146.884 28.16 146.639 28.6187 146.404 28.96C146.18 29.2907 145.951 29.536 145.716 29.696C145.482 29.856 145.236 29.9573 144.98 30C144.735 30.0533 144.458 30.08 144.148 30.08ZM157.119 33.712L156.655 32.496C157.433 32.24 158.079 31.9467 158.591 31.616C159.113 31.2853 159.524 30.9333 159.823 30.56C160.132 30.1867 160.351 29.808 160.479 29.424C160.607 29.0293 160.671 28.6507 160.671 28.288C160.671 27.7653 160.553 27.2373 160.319 26.704C160.095 26.16 159.844 25.648 159.567 25.168L160.735 24.576C160.937 24.9493 161.113 25.3173 161.263 25.68C161.423 26.0427 161.561 26.384 161.679 26.704C161.807 27.024 161.908 27.3173 161.983 27.584C162.132 28.0427 162.324 28.3573 162.559 28.528C162.804 28.688 163.135 28.768 163.551 28.768C163.775 28.768 163.935 28.832 164.031 28.96C164.137 29.0773 164.191 29.2213 164.191 29.392C164.191 29.5627 164.116 29.7227 163.967 29.872C163.817 30.0107 163.625 30.08 163.391 30.08C162.921 30.08 162.537 30 162.239 29.84C161.951 29.6693 161.732 29.4507 161.583 29.184C161.433 28.9067 161.332 28.6187 161.279 28.32L161.791 28.608C161.791 29.312 161.631 29.952 161.311 30.528C161.001 31.1147 160.601 31.6213 160.111 32.048C159.62 32.4853 159.108 32.8427 158.575 33.12C158.041 33.3973 157.556 33.5947 157.119 33.712ZM163.398 30.08L163.558 28.768C164.188 28.768 164.678 28.7467 165.03 28.704C165.382 28.6507 165.633 28.528 165.782 28.336C165.932 28.1333 166.006 27.8187 166.006 27.392C166.006 27.1253 165.964 26.8107 165.878 26.448C165.793 26.0747 165.681 25.68 165.542 25.264C165.404 24.848 165.254 24.4373 165.094 24.032L166.39 23.552C166.529 23.8933 166.657 24.2827 166.774 24.72C166.902 25.1573 167.009 25.5893 167.094 26.016C167.18 26.4427 167.222 26.816 167.222 27.136C167.222 27.6693 167.148 28.1227 166.998 28.496C166.86 28.8693 166.636 29.1733 166.326 29.408C166.017 29.6427 165.617 29.8133 165.126 29.92C164.646 30.0267 164.07 30.08 163.398 30.08ZM166.358 33.104C166.134 33.104 165.942 33.024 165.782 32.864C165.633 32.7147 165.558 32.5333 165.558 32.32C165.558 32.1067 165.633 31.92 165.782 31.76C165.942 31.6 166.134 31.52 166.358 31.52C166.572 31.52 166.753 31.6 166.902 31.76C167.062 31.92 167.142 32.1067 167.142 32.32C167.142 32.5333 167.062 32.7147 166.902 32.864C166.753 33.024 166.572 33.104 166.358 33.104ZM164.166 33.104C163.942 33.104 163.75 33.024 163.59 32.864C163.441 32.7147 163.366 32.5333 163.366 32.32C163.366 32.1067 163.441 31.92 163.59 31.76C163.75 31.6 163.942 31.52 164.166 31.52C164.38 31.52 164.561 31.6 164.71 31.76C164.87 31.92 164.95 32.1067 164.95 32.32C164.95 32.5333 164.87 32.7147 164.71 32.864C164.561 33.024 164.38 33.104 164.166 33.104ZM168.244 33.712L167.78 32.496C168.558 32.24 169.204 31.9467 169.716 31.616C170.238 31.2853 170.649 30.9333 170.948 30.56C171.257 30.1867 171.476 29.808 171.604 29.424C171.732 29.0293 171.796 28.6507 171.796 28.288C171.796 27.7653 171.678 27.2373 171.444 26.704C171.22 26.16 170.969 25.648 170.692 25.168L171.86 24.576C172.062 24.9493 172.238 25.3173 172.388 25.68C172.548 26.0427 172.686 26.384 172.804 26.704C172.932 27.024 173.033 27.3173 173.108 27.584C173.257 28.0427 173.449 28.3573 173.684 28.528C173.929 28.688 174.26 28.768 174.676 28.768C174.9 28.768 175.06 28.832 175.156 28.96C175.262 29.0773 175.316 29.2213 175.316 29.392C175.316 29.5627 175.241 29.7227 175.092 29.872C174.942 30.0107 174.75 30.08 174.516 30.08C174.046 30.08 173.662 30 173.364 29.84C173.076 29.6693 172.857 29.4507 172.708 29.184C172.558 28.9067 172.457 28.6187 172.404 28.32L172.916 28.608C172.916 29.312 172.756 29.952 172.436 30.528C172.126 31.1147 171.726 31.6213 171.236 32.048C170.745 32.4853 170.233 32.8427 169.7 33.12C169.166 33.3973 168.681 33.5947 168.244 33.712ZM174.523 30.08L174.683 28.768C174.95 28.768 175.222 28.768 175.499 28.768C175.787 28.7573 176.07 28.7413 176.347 28.72C176.625 28.6987 176.891 28.672 177.147 28.64C177.403 28.608 177.633 28.56 177.835 28.496C178.209 28.3787 178.55 28.224 178.859 28.032C179.179 27.84 179.435 27.6053 179.627 27.328C179.83 27.0507 179.931 26.7307 179.931 26.368C179.931 26.1227 179.873 25.872 179.755 25.616C179.638 25.3493 179.478 25.1253 179.275 24.944C179.073 24.7627 178.838 24.672 178.571 24.672C178.315 24.672 178.075 24.7573 177.851 24.928C177.638 25.0987 177.462 25.3227 177.323 25.6C177.195 25.8667 177.131 26.144 177.131 26.432C177.131 26.7733 177.217 27.0827 177.387 27.36C177.569 27.6267 177.787 27.856 178.043 28.048C178.299 28.24 178.555 28.3947 178.811 28.512L177.291 28.96C177.121 28.832 176.918 28.656 176.683 28.432C176.459 28.1973 176.257 27.9093 176.075 27.568C175.905 27.2267 175.819 26.8373 175.819 26.4C175.819 25.9733 175.894 25.5787 176.043 25.216C176.203 24.8427 176.411 24.5173 176.667 24.24C176.934 23.9627 177.233 23.7493 177.563 23.6C177.905 23.44 178.257 23.36 178.619 23.36C179.142 23.36 179.601 23.504 179.995 23.792C180.39 24.08 180.694 24.448 180.907 24.896C181.131 25.3333 181.243 25.792 181.243 26.272C181.243 26.7307 181.158 27.1467 180.987 27.52C180.817 27.8827 180.582 28.208 180.283 28.496C179.995 28.784 179.654 29.0293 179.259 29.232C178.875 29.4347 178.465 29.6 178.027 29.728C177.782 29.8027 177.515 29.8613 177.227 29.904C176.95 29.9467 176.657 29.9787 176.347 30C176.038 30.032 175.729 30.0533 175.419 30.064C175.11 30.0747 174.811 30.08 174.523 30.08ZM182.443 30.08C181.91 30.08 181.355 30.048 180.779 29.984C180.214 29.9093 179.675 29.8187 179.163 29.712C178.662 29.5947 178.246 29.4667 177.915 29.328L179.019 28.528C179.339 28.5707 179.718 28.6133 180.155 28.656C180.593 28.688 181.03 28.7147 181.467 28.736C181.905 28.7573 182.283 28.768 182.603 28.768C182.827 28.768 182.987 28.832 183.083 28.96C183.19 29.0773 183.243 29.2213 183.243 29.392C183.243 29.5627 183.169 29.7227 183.019 29.872C182.87 30.0107 182.678 30.08 182.443 30.08ZM179.595 21.712C179.371 21.712 179.179 21.6373 179.019 21.488C178.87 21.328 178.795 21.1413 178.795 20.928C178.795 20.7147 178.87 20.528 179.019 20.368C179.179 20.208 179.371 20.128 179.595 20.128C179.809 20.128 179.99 20.208 180.139 20.368C180.299 20.528 180.379 20.7147 180.379 20.928C180.379 21.1413 180.299 21.328 180.139 21.488C179.99 21.6373 179.809 21.712 179.595 21.712ZM177.403 21.712C177.179 21.712 176.987 21.6373 176.827 21.488C176.678 21.328 176.603 21.1413 176.603 20.928C176.603 20.7147 176.678 20.528 176.827 20.368C176.987 20.208 177.179 20.128 177.403 20.128C177.617 20.128 177.798 20.208 177.947 20.368C178.107 20.528 178.187 20.7147 178.187 20.928C178.187 21.1413 178.107 21.328 177.947 21.488C177.798 21.6373 177.617 21.712 177.403 21.712ZM182.445 30.08L182.605 28.768C183.235 28.768 183.725 28.7467 184.077 28.704C184.429 28.6507 184.68 28.528 184.829 28.336C184.979 28.1333 185.053 27.8187 185.053 27.392C185.053 27.1253 185.011 26.8107 184.925 26.448C184.84 26.0747 184.728 25.68 184.589 25.264C184.451 24.848 184.301 24.4373 184.141 24.032L185.437 23.552C185.576 23.8933 185.704 24.2827 185.821 24.72C185.949 25.1573 186.056 25.5893 186.141 26.016C186.227 26.4427 186.269 26.816 186.269 27.136C186.269 27.6693 186.195 28.1227 186.045 28.496C185.907 28.8693 185.683 29.1733 185.373 29.408C185.064 29.6427 184.664 29.8133 184.173 29.92C183.693 30.0267 183.117 30.08 182.445 30.08ZM185.933 21.888C185.709 21.888 185.517 21.8133 185.357 21.664C185.208 21.504 185.133 21.3173 185.133 21.104C185.133 20.8907 185.208 20.704 185.357 20.544C185.517 20.384 185.709 20.304 185.933 20.304C186.147 20.304 186.328 20.384 186.477 20.544C186.637 20.704 186.717 20.8907 186.717 21.104C186.717 21.3173 186.637 21.504 186.477 21.664C186.328 21.8133 186.147 21.888 185.933 21.888ZM183.741 21.888C183.517 21.888 183.325 21.8133 183.165 21.664C183.016 21.504 182.941 21.3173 182.941 21.104C182.941 20.8907 183.016 20.704 183.165 20.544C183.325 20.384 183.517 20.304 183.741 20.304C183.955 20.304 184.136 20.384 184.285 20.544C184.445 20.704 184.525 20.8907 184.525 21.104C184.525 21.3173 184.445 21.504 184.285 21.664C184.136 21.8133 183.955 21.888 183.741 21.888ZM193.199 30L192.879 18.576H194.175L194.495 30H193.199ZM195.197 33.712L194.733 32.496C195.511 32.24 196.157 31.9467 196.669 31.616C197.191 31.2853 197.602 30.9333 197.901 30.56C198.21 30.1867 198.429 29.808 198.557 29.424C198.685 29.0293 198.749 28.6507 198.749 28.288C198.749 27.7653 198.631 27.2373 198.397 26.704C198.173 26.16 197.922 25.648 197.645 25.168L198.813 24.576C199.015 24.9493 199.191 25.3173 199.341 25.68C199.501 26.0427 199.639 26.384 199.757 26.704C199.885 27.024 199.986 27.3173 200.061 27.584C200.21 28.0427 200.402 28.3573 200.637 28.528C200.882 28.688 201.213 28.768 201.629 28.768C201.853 28.768 202.013 28.832 202.109 28.96C202.215 29.0773 202.269 29.2213 202.269 29.392C202.269 29.5627 202.194 29.7227 202.045 29.872C201.895 30.0107 201.703 30.08 201.469 30.08C200.999 30.08 200.615 30 200.317 29.84C200.029 29.6693 199.81 29.4507 199.661 29.184C199.511 28.9067 199.41 28.6187 199.357 28.32L199.869 28.608C199.869 29.312 199.709 29.952 199.389 30.528C199.079 31.1147 198.679 31.6213 198.189 32.048C197.698 32.4853 197.186 32.8427 196.653 33.12C196.119 33.3973 195.634 33.5947 195.197 33.712ZM201.477 30.08L201.637 28.768C201.903 28.768 202.197 28.768 202.517 28.768C202.847 28.7573 203.178 28.7467 203.509 28.736C203.85 28.7253 204.165 28.704 204.453 28.672C204.741 28.6293 204.981 28.576 205.173 28.512C205.557 28.3733 205.855 28.2027 206.069 28C206.282 27.7867 206.431 27.5093 206.517 27.168C206.613 26.816 206.661 26.368 206.661 25.824C206.661 25.376 206.602 24.96 206.485 24.576C206.367 24.192 206.202 23.8827 205.989 23.648C205.775 23.4133 205.519 23.296 205.221 23.296C204.975 23.296 204.751 23.392 204.549 23.584C204.357 23.7653 204.202 24 204.085 24.288C203.978 24.576 203.925 24.864 203.925 25.152C203.925 25.376 203.967 25.568 204.053 25.728C204.149 25.888 204.303 26.016 204.517 26.112C204.73 26.1973 205.007 26.24 205.349 26.24C205.658 26.24 205.967 26.208 206.277 26.144C206.597 26.08 206.869 25.9947 207.093 25.888L207.157 27.008C206.986 27.1253 206.794 27.2213 206.581 27.296C206.367 27.3707 206.143 27.424 205.909 27.456C205.674 27.488 205.439 27.504 205.205 27.504C204.661 27.504 204.197 27.4187 203.813 27.248C203.439 27.0667 203.151 26.8267 202.949 26.528C202.757 26.2187 202.661 25.8667 202.661 25.472C202.661 25.0667 202.725 24.6613 202.853 24.256C202.981 23.84 203.162 23.4613 203.397 23.12C203.631 22.7787 203.914 22.5067 204.245 22.304C204.575 22.0907 204.943 21.984 205.349 21.984C205.925 21.984 206.399 22.1707 206.773 22.544C207.157 22.9173 207.439 23.408 207.621 24.016C207.813 24.6133 207.909 25.248 207.909 25.92C207.909 26.72 207.77 27.408 207.493 27.984C207.226 28.5493 206.778 29.0187 206.149 29.392C205.903 29.5307 205.605 29.648 205.253 29.744C204.911 29.8293 204.533 29.8987 204.117 29.952C203.711 30.0053 203.285 30.0373 202.837 30.048C202.389 30.0693 201.935 30.08 201.477 30.08ZM206.165 20.336C205.941 20.336 205.749 20.2613 205.589 20.112C205.439 19.952 205.365 19.7653 205.365 19.552C205.365 19.3387 205.439 19.152 205.589 18.992C205.749 18.832 205.941 18.752 206.165 18.752C206.378 18.752 206.559 18.832 206.709 18.992C206.869 19.152 206.949 19.3387 206.949 19.552C206.949 19.7653 206.869 19.952 206.709 20.112C206.559 20.2613 206.378 20.336 206.165 20.336ZM203.973 20.336C203.749 20.336 203.557 20.2613 203.397 20.112C203.247 19.952 203.173 19.7653 203.173 19.552C203.173 19.3387 203.247 19.152 203.397 18.992C203.557 18.832 203.749 18.752 203.973 18.752C204.186 18.752 204.367 18.832 204.517 18.992C204.677 19.152 204.757 19.3387 204.757 19.552C204.757 19.7653 204.677 19.952 204.517 20.112C204.367 20.2613 204.186 20.336 203.973 20.336ZM210.105 30L209.785 18.576H211.081L211.401 30H210.105ZM209.673 34.848L209.481 33.984C209.758 33.92 209.982 33.8667 210.153 33.824C210.323 33.7813 210.515 33.7333 210.729 33.68L210.649 34.016C210.371 33.9307 210.105 33.7493 209.849 33.472C209.603 33.1947 209.481 32.88 209.481 32.528C209.481 32.208 209.555 31.936 209.705 31.712C209.865 31.4987 210.067 31.3387 210.313 31.232C210.569 31.1253 210.841 31.072 211.129 31.072C211.246 31.072 211.369 31.0827 211.497 31.104C211.635 31.1253 211.763 31.1573 211.881 31.2L211.753 32C211.646 31.9787 211.545 31.9573 211.449 31.936C211.353 31.9147 211.246 31.904 211.129 31.904C210.883 31.904 210.691 31.952 210.553 32.048C210.414 32.1547 210.345 32.2987 210.345 32.48C210.345 32.704 210.414 32.896 210.553 33.056C210.702 33.216 210.867 33.3387 211.049 33.424C211.241 33.52 211.395 33.568 211.513 33.568L210.857 33.632C211.145 33.5573 211.411 33.4773 211.657 33.392C211.913 33.3173 212.142 33.2427 212.345 33.168L212.601 33.984C212.345 34.08 212.041 34.1813 211.689 34.288C211.347 34.3947 211.001 34.496 210.649 34.592C210.297 34.688 209.971 34.7733 209.673 34.848Z" fill="#534089"/>
</svg>
